<?xml version="1.0" encoding="utf-8"?>
<!-- Generator: Adobe Illustrator 16.0.0, SVG Export Plug-In . SVG Version: 6.00 Build 0)  -->
<!DOCTYPE svg PUBLIC "-//W3C//DTD SVG 1.1//EN" "http://www.w3.org/Graphics/SVG/1.1/DTD/svg11.dtd">
<svg version="1.1" id="Layer_1" xmlns="http://www.w3.org/2000/svg" xmlns:xlink="http://www.w3.org/1999/xlink" x="0px" y="0px"
	 width="1400px" height="980px" viewBox="0 0 1400 980" enable-background="new 0 0 1400 980" xml:space="preserve">
<rect x="-5" y="-2" fill="#C0D6EF" width="1413.238" height="989.344"/>
<path fill-rule="evenodd" clip-rule="evenodd" fill="#572B42" d="M384.084,541.376h67.746c13.688,0,27.3-11.361,28.424-25.675
	l-3.542-96.286c0-13.688-11.195-24.886-24.882-24.886l-68.163-5.795c-13.862,1.212-24.469,16.993-24.469,30.681v97.075
	C359.199,530.178,370.4,541.376,384.084,541.376"/>
<path fill-rule="evenodd" clip-rule="evenodd" fill="#633750" d="M378.952,535.154h86.307c8.579,0,15.6-7.021,15.6-15.604v-115.64
	c0-8.583-7.021-15.604-15.6-15.604h-86.307c-8.582,0-15.604,7.025-15.604,15.604v115.64
	C363.348,528.133,370.37,535.154,378.952,535.154"/>
<path fill="#FCC59D" d="M534.873,340.096c0,0-1.1-6.267-1.079-11.875c0.017-5.607-3.033-8.92-2.22-9.443
	c0.81-0.522,5.772,0.417,6.906,6.106c0,0,2.903-2.691,3.938-8.999s1.451-8.5,3.463-7.811c0.942,0.325,4.607,2.51,6.014,8.432
	c1.318,5.539-0.649,14.487-2.596,24.63L534.873,340.096z"/>
<path fill="#FFFFFF" d="M531.583,319.083c-0.331,1.345,0.502,2.715,1.848,3.046l19.855,4.856c1.346,0.328,2.712-0.502,3.043-1.848
	l9.969-40.752c0.328-1.342-0.505-2.712-1.851-3.04l-19.855-4.856c-1.342-0.331-2.711,0.499-3.04,1.844L531.583,319.083z"/>
<rect x="537.993" y="285.428" transform="matrix(-0.9713 -0.2377 0.2377 -0.9713 1010.6066 724.8422)" fill="#323333" width="22.013" height="32.141"/>
<polygon fill="#323333" points="551.033,282.712 559.075,284.679 559.373,283.456 551.327,281.489 "/>
<path fill="#323333" d="M545.477,280.707c-0.082,0.335,0.126,0.676,0.461,0.758c0.338,0.082,0.68-0.123,0.762-0.461
	c0.085-0.338-0.126-0.676-0.461-0.762C545.9,280.161,545.562,280.369,545.477,280.707"/>
<path fill="#323333" d="M542.673,320.623c-0.208,0.86,0.314,1.725,1.175,1.937c0.857,0.208,1.721-0.318,1.933-1.175
	c0.208-0.857-0.314-1.721-1.175-1.933C543.752,319.24,542.884,319.766,542.673,320.623"/>
<path fill="#FCC59D" d="M538.479,324.885c0,0-1.028-8.101-7.158-6.045c0,0,2.363,5.188,2.466,8.873L538.479,324.885z"/>
<path fill="#FFFFFF" d="M476.413,412.865c0,0,30.162-16.126,46.001-31.477c9.255-8.968,8.866-49.308,8.866-49.308
	s10.214-0.775,21.7,4.727c0,0-4.884,49.232-14.572,60.035c-7.715,8.609-41.207,32.792-41.207,32.792L476.413,412.865z"/>
<path fill="#FCC59D" d="M578.422,445.89c0,0,6.359,0.174,11.851,1.312c5.492,1.137,9.344-1.188,9.692-0.291
	c0.352,0.902-1.558,5.574-7.36,5.553c0,0,2.06,3.381,8.029,5.652c5.977,2.274,8.999,2.92,7.469,4.095
	c-1.53,1.175-13.828,5.744-33.581-2.391L578.422,445.89z"/>
<path fill="#FFFFFF" d="M485.053,415.789c0,0,24.985,23.363,44.622,33.414c11.468,5.871,49.533-7.493,49.533-7.493
	s4.023,9.419,2.514,22.065c0,0-48.181,11.236-61.527,5.546c-10.635-4.535-44.321-28.448-44.321-28.448L485.053,415.789z"/>
<polygon fill="#535355" points="582.254,420.929 603.243,479.822 681.5,455.534 660.979,399.317 "/>
<polygon fill="#FFFFFF" points="586.642,424.521 604.514,475.816 676.217,454.233 658.1,404.263 "/>
<path fill="#DC6D3E" d="M665.19,416.639c-2.309,1.25-3.518,4.033-2.698,6.263l4.307,11.912c0.854,2.411,3.401,3.265,5.676,1.851
	c2.268-1.445,3.415-4.559,2.571-6.906l-4.238-11.567C669.999,416.031,667.488,415.358,665.19,416.639"/>
<path fill="#DC6D3E" d="M670.757,421.465c-1.711,1.014-2.603,3.196-1.984,4.904c0.628,1.725,2.527,2.295,4.235,1.243l6.605-4.249
	c1.694-1.13,2.564-3.408,1.953-5.054c-0.608-1.629-2.473-2.039-4.17-0.946L670.757,421.465z"/>
<rect x="629.844" y="423.629" transform="matrix(-0.3178 -0.9482 0.9482 -0.3178 421.3249 1177.4375)" fill="#C3C0C5" width="8.813" height="27.032"/>
<rect x="639.109" y="430.344" transform="matrix(-0.3177 -0.9482 0.9482 -0.3177 422.33 1201.7065)" fill="#C3C0C5" width="8.814" height="37.126"/>
<rect x="621.711" y="415.342" transform="matrix(-0.3178 -0.9481 0.9481 -0.3178 422.1552 1153.7361)" fill="#C3C0C5" width="8.81" height="19.325"/>
<rect x="615.546" y="424.309" transform="matrix(-0.9457 0.3252 -0.3252 -0.9457 1342.5573 662.7709)" fill="#CFC7D2" width="0.704" height="38.519"/>
<rect x="612.691" y="425.645" transform="matrix(-0.9459 0.3245 -0.3245 -0.9459 1337.2913 666.7722)" fill="#CFC7D2" width="0.704" height="38.519"/>
<rect x="609.836" y="426.98" transform="matrix(-0.9457 0.3252 -0.3252 -0.9457 1332.3159 669.8238)" fill="#CFC7D2" width="0.704" height="38.519"/>
<rect x="606.981" y="428.315" transform="matrix(-0.9457 0.3252 -0.3252 -0.9457 1327.1953 673.3499)" fill="#CFC7D2" width="0.704" height="38.519"/>
<path fill="#FCC59D" d="M568.368,382.263c0,0,2.452-5.871,5.491-10.587c3.033-4.713,2.247-9.149,3.214-9.149
	c0.966-0.003,4.641,3.459,2.53,8.866c0,0,3.894-0.707,8.162-5.464c4.272-4.753,5.806-6.376,7.127-4.712
	c0.618,0.778,2.527,4.6,0.526,10.344c-1.875,5.375-8.35,11.857-15.453,19.35L568.368,382.263z"/>
<path fill="#FFFFFF" d="M479.917,412.08c0,0,34.1,2.66,55.714-1.738c12.629-2.572,34.031-36.768,34.031-36.768
	s9.023,4.85,15.733,15.672c0,0-30.633,38.847-44.615,42.73c-11.14,3.094-52.381,5.43-52.381,5.43L479.917,412.08z"/>
<path fill="#FCC59D" d="M284.752,407.558c0,0-4.819-5.566-9.859-9.651s-5.785-9.241-6.844-8.896
	c-1.063,0.349-3.853,5.485,0.423,10.662c0,0-4.535,0.632-10.949-3.05c-6.414-3.685-8.688-4.911-9.539-2.605
	c-0.399,1.079-1.117,5.966,3.166,11.56c4.003,5.232,13.462,10.013,23.981,15.682L284.752,407.558z"/>
<polygon fill="#DC6D3E" points="258.624,430.276 277.789,372.823 177.968,321.494 159.851,380.948 "/>
<polygon fill="#ECE9E7" points="256.489,426.461 274.101,373.554 180.026,325.233 163.323,379.879 "/>
<polygon fill="#D8D5D5" points="174.941,378.69 188.482,334.601 186.722,333.891 173.194,378.011 "/>
<polygon fill="#D8D5D5" points="183.774,382.304 197.392,338.354 195.596,337.576 181.995,381.552 "/>
<polygon fill="#D8D5D5" points="192.787,386.245 206.475,342.439 204.644,341.592 190.968,385.428 "/>
<polygon fill="#D8D5D5" points="201.968,390.521 215.733,346.854 213.867,345.943 200.117,389.639 "/>
<polygon fill="#D8D5D5" points="217.461,379.336 225.169,351.602 223.263,350.625 215.569,378.379 "/>
<polygon fill="#D8D5D5" points="230.568,405.338 244.553,362.096 242.586,360.986 228.615,404.256 "/>
<polygon fill="#D8D5D5" points="240.455,410.943 254.519,367.844 252.51,366.666 238.46,409.795 "/>
<polygon fill="#D8D5D5" points="258.992,394.656 264.647,373.919 262.605,372.68 256.96,393.427 "/>
<path fill="#FCC59D" d="M268.473,399.673c0,0-6.516-6.847-0.185-10.84c0,0,2.923,5.912,6.154,8.695L268.473,399.673z"/>
<path fill="#FFFFFF" d="M392.763,408.347c0,0-36.521,15.259-61.869,18.24c-14.814,1.738-50.704-28.11-50.704-28.11
	s-8.166,8.592-11.628,22.919c0,0,47.723,31.617,64.498,30.832c13.36-0.625,59.539-12.974,59.539-12.974L392.763,408.347z"/>
<path fill-rule="evenodd" clip-rule="evenodd" fill="#DC6D3E" d="M303.737,293.254c-0.222,0.574-0.632,1.024-1.192,1.226
	l-50.568,18.052c-0.478,0.174-0.99,0.133-1.461-0.075l19.377-29.596L303.737,293.254z"/>
<rect x="253.04" y="301.87" transform="matrix(0.9418 -0.3363 0.3363 0.9418 -89.2806 112.85)" fill-rule="evenodd" clip-rule="evenodd" fill="#FFFFFF" width="56.262" height="24.637"/>
<rect x="253.147" y="305.321" transform="matrix(0.9418 -0.3362 0.3362 0.9418 -86.9012 111.7133)" fill-rule="evenodd" clip-rule="evenodd" fill="#EFEEEE" width="51.996" height="2.962"/>
<rect x="255.195" y="311.063" transform="matrix(0.9418 -0.3363 0.3363 0.9418 -88.7244 112.7593)" fill-rule="evenodd" clip-rule="evenodd" fill="#EFEEEE" width="51.997" height="2.958"/>
<rect x="257.244" y="316.801" transform="matrix(0.9418 -0.3363 0.3363 0.9418 -90.5368 113.7859)" fill-rule="evenodd" clip-rule="evenodd" fill="#EFEEEE" width="51.998" height="2.962"/>
<path fill-rule="evenodd" clip-rule="evenodd" fill="#FFC955" d="M250.584,312.382c-0.331,0.652-0.389,1.516-0.088,2.356
	l11.044,30.941c0.205,0.56,0.533,1.031,0.936,1.37l16.447-25.176L250.584,312.382z"/>
<path fill-rule="evenodd" clip-rule="evenodd" fill="#FFC955" d="M316.305,326.125l-11.044-30.938
	c-0.266-0.741-0.755-1.321-1.329-1.649l-16.167,25.275l28.673,9.037C316.551,327.316,316.517,326.716,316.305,326.125"/>
<path fill-rule="evenodd" clip-rule="evenodd" fill="#DC6D3E" d="M264.566,347.517l50.567-18.052
	c0.68-0.243,1.144-0.857,1.305-1.615l-28.673-9.037l-3.173,4.956l-5.669-1.896l-16.447,25.173
	C263.09,347.568,263.862,347.77,264.566,347.517"/>
<path fill="#FCC59D" d="M315.062,367.96c0,0-4.754-9.948-8.695-12.967c-3.931-3.022-12.813-6.683-15.385-7.919
	c-2.674-1.284-4.914-5.386-5.317-8.565l5.389-0.639c0,0,0.758,1.551,2.152,1.151c2.657-0.769,2.674-1.698,1.325-4
	c-1.352-2.302-4.815-6.625-5.409-8.356s1.168-4.457,5.034-0.922c3.805,3.477,6.12,5.56,10.631,7.858s5.29,4.275,7.08,6.359
	c0,0,5.84,2.339,8.275,6.707c2.431,4.372,10.481,15.075,10.481,15.075L315.062,367.96z"/>
<path fill="#FFFFFF" d="M380.092,432.154c0,0-60.734-91.815-65.058-94.056c-4.32-2.24-14.487,12.247-12.588,20.744
	c0,0,53.692,86.413,63.412,88.745C375.578,449.919,380.092,432.154,380.092,432.154"/>
<path fill-rule="evenodd" clip-rule="evenodd" fill="#D9D8D9" d="M438.013,529.055c-0.785,1.056-17.957,11.792-23.762,10.211
	l-19.699-5.368c-6.502-1.772-12.369-6.551-12.369-6.551s24.063-8.421,25.084-8.306C408.288,519.154,438.013,529.055,438.013,529.055
	"/>
<path fill-rule="evenodd" clip-rule="evenodd" fill="#FFFFFF" d="M453.285,404.027c1.892,2.462,30.306,9.563,30.436,9.593
	c-0.628-0.157-10.529,28.318-11.639,31.081c-8.732,21.751-12.452,43.85-8.094,67.315c0.536,2.896,12.605,30.586,13.346,33.438
	l-35.289-4.825l-7.762,9.613l-56.514-0.816c3.118-15.72,10.205-54.273,10.047-70.379c-0.226-22.239-11.15-41.914-19.767-61.899
	l34.779-14.146l47.026-0.249L453.285,404.027z"/>
<path fill-rule="evenodd" clip-rule="evenodd" fill="#F4BA92" d="M461.772,332.241c2.646-1.305,16.71-9.498,18.445-5.539
	c1.728,3.961-2.711,22.092-4.119,24.192c-1.407,2.101-11.365,5.331-11.932,4.177C463.599,353.92,461.772,332.241,461.772,332.241"/>
<path fill-rule="evenodd" clip-rule="evenodd" fill="#DE9075" d="M467.294,331.357c1.079-0.393,6.117-2.435,7.315-0.557
	c1.195,1.878,0.184,6.656,0.239,7.667c0.055,1.011-1.496,8.436-2.773,9.771c-1.281,1.335-6.492,3.299-6.885,2.309
	C464.801,349.553,467.294,331.357,467.294,331.357"/>
<path fill-rule="evenodd" clip-rule="evenodd" fill="#F4BA92" d="M390.939,332.839c-2.77-1.014-17.622-7.67-18.927-3.552
	c-1.298,4.122,5.037,21.679,6.66,23.619c1.625,1.939,11.864,4.095,12.308,2.889C391.424,354.59,390.939,332.839,390.939,332.839"/>
<path fill-rule="evenodd" clip-rule="evenodd" fill="#DE9075" d="M385.355,332.545c-1.113-0.277-6.342-1.772-7.332,0.222
	c-0.991,1.995,0.522,6.639,0.577,7.65c0.051,1.011,2.38,8.23,3.794,9.422c1.414,1.188,6.803,2.592,7.086,1.564
	C389.764,350.375,385.355,332.545,385.355,332.545"/>
<path fill-rule="evenodd" clip-rule="evenodd" fill="#FDEAEC" d="M406.109,409.249c-0.178-0.379-5.942-5.881-5.874-6.11
	c0.065-0.226-0.4-6.888-0.4-6.888l48.973-1.199l-0.44,10.621L406.109,409.249z"/>
<path fill-rule="evenodd" clip-rule="evenodd" fill="#F4BA92" d="M443.245,372.868c-0.673,6.451-2.206,25.299-0.099,26.874
	c2.111,1.578,13.63,5.522,13.63,5.522s-24.62,19.204-29.65,20.146c-5.034,0.942-32.047-18.551-32.047-18.551
	s12.861-5.751,14.719-8.886c1.858-3.139,2.534-28.496,2.534-28.496L443.245,372.868z"/>
<path fill-rule="evenodd" clip-rule="evenodd" fill="#EBBFB2" d="M386.537,304.674c0.543,16.659,2.049,33.564,1.636,50.216
	c-0.43,17.383,16.458,29.466,30.128,36.921c3.077,1.677,7.616,0.724,11.167,0.803c5.293,0.12,7.349-2.056,11.27-4.983
	c2.326-1.735,4.638-3.497,6.871-5.354c4.443-3.688,8.623-7.763,11.888-12.554c3.261-4.785,5.515-9.805,5.72-15.552
	c0.157-4.46,0.731-8.938,1.093-13.388l0.567-37.337L386.537,304.674z"/>
<path fill-rule="evenodd" clip-rule="evenodd" fill="#ECA578" d="M386.537,304.674c0.543,16.659,2.049,33.564,1.636,50.216
	c-0.43,17.383,16.458,29.466,30.128,36.921c3.077,1.677,7.616,0.724,11.167,0.803c5.293,0.12,7.349-2.056,11.27-4.983
	c2.326-1.735,4.638-3.497,6.871-5.354c4.443-3.688,8.623-7.763,11.888-12.554c3.261-4.785,5.515-9.805,5.72-15.552
	c0.157-4.46,0.731-8.938,1.093-13.388l0.567-37.337L386.537,304.674z"/>
<path fill-rule="evenodd" clip-rule="evenodd" fill="#F4BA92" d="M387.039,299.651c0.567,17.133,2.097,34.523,1.711,51.654
	c-0.403,17.878,16.505,30.33,30.187,38.021c3.081,1.731,7.616,0.754,11.174,0.843c5.29,0.13,7.342-2.107,11.256-5.109
	c2.326-1.783,4.635-3.593,6.868-5.499c4.436-3.787,8.609-7.971,11.867-12.892c3.258-4.921,5.499-10.078,5.697-15.989
	c0.154-4.587,0.717-9.194,1.079-13.77l0.505-38.403L387.039,299.651z"/>
<path fill-rule="evenodd" clip-rule="evenodd" fill="#813843" d="M388.504,294.104c-6.192,1.004-14.292,1.096-14.979,7.213
	c-0.686,6.113,14.262,43.379,14.251,41.35C387.763,340.643,388.504,294.104,388.504,294.104"/>
<path fill-rule="evenodd" clip-rule="evenodd" fill="#693647" d="M387.845,336.999c0.092-6.516,0.26-17.444,0.403-26.642
	l-0.331-0.717c0,0-2.743-2.438-5.044-4.925s-4.228-5.338-4.228-5.338s2.35,7.64,3.715,11.113c1.366,3.473,2.903,5.417,2.111,4.785
	c-0.792-0.635-6.209-5.662-6.209-5.662s2.923,10.604,4.447,13.056c1.523,2.452,2.588,4.208,2.408,4.01
	c-0.181-0.202-3.364-2.186-3.364-2.186S385.144,332.333,387.845,336.999"/>
<path fill-rule="evenodd" clip-rule="evenodd" fill="#813843" d="M466.273,343.351l-4.122-32.57c0,0-34.37,10.778-36.282,9.695
	c-1.919-1.079-23.674-3.804-34.926-9.115c-11.253-5.307-13.063-17.031-12.837-25.48c0.229-8.456,8.394-16.823,8.394-16.823
	s1.031,6.697,10.97,9.545c9.944,2.848,35.264-3.565,47.156-2.169c11.892,1.394,20.747,12.4,20.747,12.4s8.248-0.44,12.1,8.47
	C481.521,306.686,470.023,331.995,466.273,343.351"/>
<path fill-rule="evenodd" clip-rule="evenodd" fill="#693647" d="M466.273,343.351l-3.446-27.232
	c2.575-2.599,5.123-5.942,6.089-9.641c2.213-8.483,0.57-13.029,0.547-13.534c-0.027-0.502,3.118,6.25,2.674,13.787
	s-2.8,12.387-3.326,13.595c-0.526,1.212,3.845-5.437,4.064-6.123c0.215-0.687-0.226,2.124-1.66,8.527
	C469.787,329.137,466.273,343.351,466.273,343.351"/>
<path fill-rule="evenodd" clip-rule="evenodd" fill="#693647" d="M386.499,269.058c0,0,1.031,6.697,10.97,9.545
	c9.944,2.848,35.264-3.565,47.156-2.169c4.136,0.485,7.906,2.135,11.065,4.078c0.399,0.673,0.806,1.421,1.216,2.251
	c3.688,7.482,2.711,14.542,2.596,13.958c-0.116-0.584-7.705-8.371-15.983-11.728c-8.282-3.357-17.567-3.371-16.809-3.408
	c0.754-0.041,9.104,6.181,8.664,5.782c-0.444-0.396-11.762-3.678-16.239-4.495c-4.474-0.816-7.786,0.414-7.106,0.465
	c0.68,0.048,10.566,8.213,10.566,8.213s-13.121-5.461-18.404-7.968C401.28,282.203,386.987,275.578,386.499,269.058"/>
<path fill-rule="evenodd" clip-rule="evenodd" fill="#693647" d="M466.273,343.351l-4.122-32.57c0,0-34.37,10.778-36.282,9.695
	c-1.919-1.079-28.923-6.28-34.926-9.115c-6-2.831-2.356-1.312-3.026-1.721l-3.668-10.693c0,0,8.565,5.631,9.419,5.621
	c0.854-0.014-12.018-9.436-12.387-16.942c-0.362-7.506,2.466-15.266,3.449-14.531c0.984,0.731,0.26,8.087,5.512,14.729
	c5.246,6.643,12.831,6.407,13.701,6.868c0.868,0.461-8.274-12.728-8.674-13.886c-0.399-1.161,9.412,8.784,19.552,12.127
	s15.447,1.541,15.447,1.541s-5.837-8.128-6.882-8.75c-1.045-0.618,15.672,2.712,22.076,8.787c6.4,6.072,6.403,12.489,6.403,12.489
	s2.852-0.321,7.813-5.481c4.959-5.157,4.467-11.208,4.467-11.208s0.922,1.468,2.049,6.81
	C468.445,307.772,464.787,331.626,466.273,343.351"/>
<path fill-rule="evenodd" clip-rule="evenodd" fill="#813843" d="M442.746,316.604c-6.666,1.909-13.107,3.613-15.73,3.903
	c-0.622-0.007-1.031-0.024-1.147-0.031c-0.628-0.352-3.36-0.877-7.148-1.612h-0.003l-0.021-0.003l-0.027-0.007l-0.024-0.003
	c-0.809-0.164-8.138-1.643-10.447-2.148l-0.01-0.003c-2.435-0.54-14.838-9.917-16.16-10.946c-1.322-1.024,2.858,1.37,8.606,3.091
	c5.748,1.718,11.308,1.591,11.308,1.591s-2.24-0.895-6.796-4.026c-4.556-3.135-16.15-14.842-17.595-16.621
	c-1.448-1.779,11.291,9.19,20.73,12.065c9.439,2.872,12.841,3.367,12.841,3.367s-10.949-9.04-12.995-9.436
	c-2.045-0.399,7.629,0.608,16.888,3.32c9.262,2.715,12.841,6.577,12.841,6.577l-2.458-11.348
	C435.397,294.333,446.561,312.184,442.746,316.604"/>
<path fill-rule="evenodd" clip-rule="evenodd" fill="#614747" d="M463.674,332.187L463.674,332.187
	c0.782,2.083,0.362,6.796-0.095,9.115c-0.465,2.315-1.523,5.938-2.985,7.711c-4.529,5.485-19.261,4.624-22.868-0.201
	c-2.777-3.716-7.458-14.702-1.51-17.731c5.103-2.596,19.651-2.944,24.787-1.151C461.003,329.929,462.896,330.107,463.674,332.187
	 M393.193,329.004L393.193,329.004c5.184-1.65,19.719-0.905,24.746,1.827c5.867,3.19,0.888,14.043-1.991,17.684
	c-3.74,4.723-18.486,5.184-22.864-0.423c-1.414-1.81-2.374-5.461-2.773-7.787c-0.396-2.329-0.683-7.056,0.15-9.115
	C391.301,329.13,393.193,329.004,393.193,329.004z M431.931,330.517c-0.625,0.232-1.64,0.331-4.85,0.215
	c-3.214,0.027-4.225-0.099-4.839-0.349c-0.348-0.406-1.373-1.694-2.951-2.288c-7.424-2.787-28.069-1.954-33.574-0.659
	c-0.71,0.167-0.786,0.14-0.868,0.622c-0.082,0.478-0.147,3.306,0.075,3.736c0.222,0.434,1.305,0.625,2.244,2.052
	c1.687,2.555,1.441,11.755,5.488,16.171c4.19,4.569,20.316,4.955,24.756-0.998c2.937-3.931,4.426-8.329,6.031-12.557
	c0.95-0.946,1.755-1.011,2.486-1.103c0.458-0.058,0.854-0.065,1.089-0.065c0.236,0.007,0.632,0.024,1.083,0.096
	c0.731,0.109,1.541,0.194,2.459,1.168c1.489,4.272,2.855,8.708,5.683,12.718c4.283,6.072,20.409,6.126,24.726,1.67
	c4.167-4.303,4.173-13.503,5.925-16.014c0.98-1.4,2.066-1.564,2.298-1.987c0.232-0.427,0.246-3.255,0.178-3.736
	s-0.144-0.458-0.847-0.642c-5.471-1.444-26.084-2.841-33.584-0.256C433.348,328.86,432.289,330.117,431.931,330.517z"/>
<path fill-rule="evenodd" clip-rule="evenodd" fill="#FDEAEC" d="M408.076,413.415c1.332-0.41,9.61-2.076,9.61-2.076l8.347,14.036
	l-17.339-3.555L408.076,413.415z"/>
<path fill-rule="evenodd" clip-rule="evenodd" fill="#FDEAEC" d="M442.384,416.031c-1.653-1.315-9.73-4.084-9.73-4.084
	l-5.529,13.462l16.789-4.788L442.384,416.031z"/>
<path fill-rule="evenodd" clip-rule="evenodd" fill="#C3C0C5" d="M448.808,395.052l-16.154,16.895l15.01,18.783
	c0.84,1.048,9.111-25.467,9.111-25.467L448.808,395.052z"/>
<path fill-rule="evenodd" clip-rule="evenodd" fill="#C3C0C5" d="M399.835,396.251l17.851,15.088l-12.93,20.272
	c-0.724,1.13-11.762-24.36-11.762-24.36L399.835,396.251z"/>
<polygon fill-rule="evenodd" clip-rule="evenodd" fill="#4C263B" points="429.888,418.678 431.285,426.106 438.375,520.562 
	424.581,537.333 410.289,519.353 420.442,426.358 "/>
<path fill-rule="evenodd" clip-rule="evenodd" fill="#4C263B" d="M417.765,413.067c1.598-0.085,15.641-1.086,15.867,0
	c0.229,1.086,1.984,7.155,1.424,7.688c-0.563,0.54-2.411,5.082-3.77,5.352c-1.359,0.27-9.802,0.471-10.843,0.252
	c-1.042-0.215-3.5-4.894-3.528-5.481C416.88,420.287,417.765,413.067,417.765,413.067"/>
<path fill-rule="evenodd" clip-rule="evenodd" fill="#ECA578" d="M424.359,337.801c0.055,1.011-3.272,17.813-3.272,17.813
	c-4.364,2.763-4.31,1.441-7.561,4.624c0.622-3.057,6.1-6.656,6.1-6.656L424.359,337.801z"/>
<path fill-rule="evenodd" clip-rule="evenodd" fill="#ECA578" d="M432.125,363.213c-0.574,0.369-4.535,2.015-7.039,2.572
	c-2.503,0.553-4.47,0.068-5.242-0.144c-0.771-0.212-5.987-3.057-5.314-3.094c0.676-0.038,7.831,0.044,7.831,0.044
	C419.667,362.571,433.054,362.615,432.125,363.213"/>
<path fill-rule="evenodd" clip-rule="evenodd" fill="#431D32" d="M410.289,519.353l10.153-92.994
	c-0.516-0.105-1.379-1.308-2.121-2.564c-0.567-0.96-1.065-1.95-1.288-2.514c-0.075-0.188-0.116-0.328-0.12-0.403
	c-0.034-0.591,0.851-7.811,0.851-7.811c0.171-0.01,0.488-0.031,0.915-0.055c0.229-0.017,0.488-0.031,0.775-0.048
	c-0.089,0.28-0.181,0.581-0.27,0.895c-0.522,1.848-0.983,4.166-0.7,5.389c0.266,1.168,1.154,2.784,2.015,3.924
	c0.574,0.754,1.137,1.301,1.51,1.376c0.014,0.003,0.027,0.007,0.044,0.01c0.113,0.024,0.284,0.051,0.502,0.082
	c0.437,0.068,1.065,0.154,1.762,0.25c0.492,0.065,1.018,0.133,1.543,0.201c0.451,0.058,0.902,0.116,1.325,0.171
	c0.106,0.014,0.211,0.027,0.314,0.041c0.01,0,0.021,0,0.034,0.003c1.209,0.154,2.128,0.267,2.128,0.267s-1.738,0.369-3.511,0.833
	c-1.738,0.451-3.508,0.99-3.733,1.37c-0.451,0.758-10.406,88.455-9.34,90.934c0.198,0.458,0.721,1.387,1.431,2.596
	c0.417,0.703,0.905,1.506,1.431,2.366c0.765,1.25,1.622,2.623,2.486,4c0.809,1.294,1.632,2.592,2.401,3.797
	c1.584,2.49,2.937,4.59,3.487,5.451c0.174,0.266,0.266,0.413,0.266,0.413l-0.311-0.393l-3.429-4.313l-2.473-3.111l-5.123-6.44
	l-2.326-2.927L410.289,519.353z"/>
<path fill-rule="evenodd" clip-rule="evenodd" fill="#61513E" d="M446.783,342.876c0,2.585,0.909,4.679,2.025,4.679
	c1.12,0,2.028-2.094,2.028-4.679c0-2.585-0.908-4.679-2.028-4.679C447.691,338.197,446.783,340.291,446.783,342.876"/>
<path fill-rule="evenodd" clip-rule="evenodd" fill="#61513E" d="M411.067,342.876c0,2.585,0.909,4.679,2.029,4.679
	s2.028-2.094,2.028-4.679c0-2.585-0.908-4.679-2.028-4.679S411.067,340.291,411.067,342.876"/>
<path fill-rule="evenodd" clip-rule="evenodd" fill="#DC757F" d="M425.059,381.88c-7.363,0-13.333-4.084-13.333-9.122l26.669-0.003
	C438.396,377.795,432.426,381.88,425.059,381.88"/>
<path fill="#633967" d="M572.374,497.625c0,0,5.259,9.528-22.584,11.171C549.79,508.796,556.524,497.216,572.374,497.625"/>
<path fill="#FCC59D" d="M565.212,515.069c-2.015-4.04,1.588-6.317,4.549-6.317c3.173,0,4.033,5.04,4.242,9.36
	c0.205,4.32,2.875,5.526,2.875,5.526s1.468,3.773,3.074,2.98c0,0,1.687-4.173,2.315-7.157c0.625-2.985,0.905-10.553-1.841-13.214
	c-2.749-2.656-7.967-7.841-11.342-7.649c-3.374,0.194-12.827-0.328-17.082-3.771l-5.864,10.502c0,0,5.085,0.188,8.576,6.751
	c3.487,6.564,10.553,9.013,11.84,13.316c0,0,3.391-4.017-0.308-8.723C565.807,516.115,565.465,515.578,565.212,515.069"/>
<path fill="#ECA578" d="M580.73,524.567c0,0,0.427-8.066,0-10.86c-0.43-2.79-3.097-6.216-3.097-6.216s3.388,3.528,3.746,5.819
	c0.362,2.288,0,9.737,0,9.737L580.73,524.567z"/>
<path fill="#ECA578" d="M576.878,523.639c0,0,0.881-7.589,0.755-9.303c-0.126-1.708-2.377-6.482-2.377-6.482
	s3.152,5.226,3.152,6.937s-0.775,10.357-0.775,10.357L576.878,523.639z"/>
<path fill-rule="evenodd" clip-rule="evenodd" fill="#FFFFFF" d="M461.673,425.778l22.219-12.329l7.848,17.557l2.828-2.305
	c0,0,4.808,32.232,23.837,45.838c4.139,2.954,53.969,23.086,53.969,23.086s-14.835,1.065-22.588,11.171
	c0,0-53.231-18.045-60.28-27.208c-2.841-3.695-5.936-10.266-8.613-16.789L461.673,425.778z"/>
<path fill="#B1A299" d="M256.502,460.267c0.461,1.844-10.904,8.422-25.849,12.168c-14.948,3.746-27.816,3.244-28.279,1.4
	c-0.462-1.844,11.28-6.376,26.227-10.123C243.549,459.963,256.042,458.42,256.502,460.267"/>
<path fill="#FCC59D" d="M268.469,457.624c0,0-7.052,0.003-13.169,1.096c-6.12,1.096-10.324-1.598-10.733-0.615
	c-0.417,0.987,1.557,6.226,7.988,6.376c0,0-2.38,3.682-9.07,6.021c-6.687,2.336-10.058,2.961-8.398,4.31
	c1.66,1.345,15.149,6.782,37.283-1.636L268.469,457.624z"/>
<path fill="#786A65" d="M210.006,474.901c0,0,7.337-3.746,19.685-6.844c12.349-3.094,19.732-1.954,19.732-1.954
	s-11.819,5.833-18.513,7.36C224.219,474.99,210.006,474.901,210.006,474.901"/>
<path fill="#DDD4CC" d="M230.223,472.541c0,0-13.949,3.805-27.347,1.779c0,0,3.497,1.523,8.126,4.56c0,0,9.542,1.168,20.713-1.633
	c11.171-2.804,19.036-8.333,19.036-8.333c1.547-4.354,5.328-7.732,5.328-7.732C245.223,469.29,230.223,472.541,230.223,472.541"/>
<path fill="#F08875" d="M221.822,449.995l3.685-0.707l0.01,0.034c0.003-0.003,0.01-0.003,0.014-0.003l0.297-0.092l0.297-0.058
	c0.007,0,0.017-0.003,0.021-0.007l-0.007-0.034l3.548-1.1c5.625-1.97,14.887-5.997,15.272-11.256c0,0,0.017,0.023,0.038,0.064
	c-0.144-0.382-0.382-0.744-0.745-1.048c-1.557-1.298-7.476-4.727-21.782-1.284V434.5c-0.102,0.027-0.208,0.055-0.314,0.082
	s-0.212,0.051-0.317,0.079l0.003,0.003c-14.238,3.712-17.836,9.525-18.599,11.407c-0.169,0.417-0.211,0.823-0.17,1.209
	C205.894,451.723,215.935,450.91,221.822,449.995"/>
<path fill="#813843" d="M241.93,437.7c0.779,3.101-6.588,7.619-16.454,10.092c-9.866,2.476-18.496,1.967-19.271-1.134
	c-0.778-3.101,6.589-7.619,16.458-10.092C232.525,434.09,241.155,434.599,241.93,437.7"/>
<path fill="#DC6D3E" d="M251.653,446.921L251.653,446.921c0,0,0.447,3.589-3.433,3.733v0.003c0.205-2.671-0.105-5.126-0.601-7.203
	v0.007C251.397,442.833,251.653,446.921,251.653,446.921 M246.415,439.712c-0.755-1.851-1.455-2.94-1.455-2.94
	c-0.509,6.933-16.451,11.724-19.131,12.482c-2.722,0.598-19.04,3.893-22.758-1.977c0,0-0.9,11.171,7.916,18.629
	c8.021,6.789,17.933,4.586,20.03,4.04c2.104-0.505,11.885-3.241,15.754-13.012c0.345-0.864,0.618-1.714,0.837-2.558l-0.004,0.007
	c0,0,9.928-0.232,7.961-9.125C253.815,438.298,246.415,439.712,246.415,439.712z"/>
<path fill="#693647" d="M236.196,435.593c0,0-4.73-0.795-14.033,1.537c-12.424,3.115-18.008,8.985-13.828,10.601
	c0,0-0.838-1.062,0.06-2.425C212.89,438.476,231.764,435.323,236.196,435.593"/>
<path fill="#F08875" d="M245.182,440.815c0,0,3.524,14.053-4.18,22.147c0,0,2.602-10.402,0.563-18.538
	C241.565,444.424,244.522,442.417,245.182,440.815"/>
<path fill="#693647" d="M224.926,438.325c0,0,2.797-6.584,0.871-9.818c-1.38-2.319-4.108-2.568-5.369-8.118
	c0,0,0.099,4.723,3.002,8.777C226.098,432.898,224.926,438.325,224.926,438.325"/>
<path fill="#693647" d="M217.835,425.283c0,0,5.572,4.484,5.401,8.244c-0.123,2.698-2.415,4.204-0.905,9.692
	c0,0-2.14-4.21-1.496-9.156C221.426,429.514,217.835,425.283,217.835,425.283"/>
<path fill-rule="evenodd" clip-rule="evenodd" fill="#FFFFFF" d="M400.023,443.202c-17.823,12.202-47.422,34.137-67.742,42.149
	c-14.965,5.901-68.009-8.009-68.009-8.009c-1.291-14.057,3.456-24.37,3.456-24.37s41.767,15.959,54.656,9.798
	c29.554-14.122,41.309-29.056,60.844-53.262L400.023,443.202z"/>
<path fill="#FCC59D" d="M592.39,452.563c0,0,8.122,0.871,7.534-5.57c0,0-5.594,1.103-9.201,0.348L592.39,452.563z"/>
<path fill-rule="evenodd" clip-rule="evenodd" fill="#A3B4DC" d="M726.464,779.793c0,15.692-146.034,28.414-326.178,28.414
	c-180.141,0-326.173-12.722-326.173-28.414c0-15.696,146.032-28.421,326.173-28.421C580.43,751.372,726.464,764.097,726.464,779.793
	"/>
<rect x="110.018" y="555.9" fill-rule="evenodd" clip-rule="evenodd" fill="#FFFFFB" width="586.423" height="230.319"/>
<rect x="97.544" y="533.221" fill-rule="evenodd" clip-rule="evenodd" fill="#B45641" width="611.37" height="14.825"/>
<rect x="110.018" y="548.046" fill-rule="evenodd" clip-rule="evenodd" fill="#8688B8" width="586.423" height="14.825"/>
<rect x="559.796" y="529.71" fill-rule="evenodd" clip-rule="evenodd" fill="#302F2F" width="97.126" height="3.511"/>
<rect x="545.036" y="529.71" fill-rule="evenodd" clip-rule="evenodd" fill="#81848A" width="14.76" height="3.511"/>
<path fill-rule="evenodd" clip-rule="evenodd" fill="#81848A" d="M577.875,477.401l0.215-0.577c0.167-0.202,0.413-0.331,0.693-0.331
	h95.309c0.502,0,0.909,0.406,0.909,0.908l-0.191,0.553l-17.889,51.756h-97.126L577.875,477.401z"/>
<path fill-rule="evenodd" clip-rule="evenodd" fill="#FFFFFF" d="M619.68,503.547c0.666-1.823-0.188-3.828-1.909-4.645
	c1.428-0.823,3.197-1.034,4.863-0.427c2.999,1.09,4.545,4.402,3.456,7.4c-1.089,2.999-4.406,4.546-7.404,3.456
	c-1.667-0.607-2.883-1.902-3.449-3.449C617.078,506.364,619.014,505.371,619.68,503.547"/>
<path fill-rule="evenodd" clip-rule="evenodd" fill="#302F2F" d="M559.796,529.71l18.08-52.309l0.215-0.577
	c0,0,1.161,0.325,1.161,1.383l-17.796,51.503H559.796z"/>
<path fill-rule="evenodd" clip-rule="evenodd" fill="#565856" d="M152.331,518.383l4.271-4.272L83.31,440.818
	c-1.771,1.311-3.734,2.23-5.784,2.756L152.331,518.383z"/>
<path fill-rule="evenodd" clip-rule="evenodd" fill="#302F2F" d="M64.918,430.965l12.608,12.609
	c2.049-0.526,4.013-1.445,5.782-2.756l-14.122-14.122L64.918,430.965z"/>
<path fill-rule="evenodd" clip-rule="evenodd" fill="#565856" d="M160.119,510.596l4.271-4.272l-74.807-74.805
	c-0.528,2.049-1.446,4.013-2.756,5.782L160.119,510.596z"/>
<path fill-rule="evenodd" clip-rule="evenodd" fill="#302F2F" d="M72.704,423.179l14.124,14.122c1.31-1.769,2.228-3.733,2.756-5.782
	L76.975,418.91L72.704,423.179z"/>
<path fill-rule="evenodd" clip-rule="evenodd" fill="#565856" d="M174.313,504.568c6.556,6.554,6.556,17.182,0,23.735
	c-6.555,6.557-17.183,6.557-23.738,0c-6.556-6.554-6.556-17.182,0-23.735C157.129,498.011,167.757,498.011,174.313,504.568"/>
<path fill-rule="evenodd" clip-rule="evenodd" fill="#565856" d="M82.814,413.07c6.556,6.554,6.556,17.182,0,23.735
	c-6.555,6.557-17.183,6.557-23.738,0c-6.554-6.553-6.554-17.181,0-23.735C65.631,406.513,76.259,406.513,82.814,413.07"/>
<path fill-rule="evenodd" clip-rule="evenodd" fill="#FFC955" d="M215.125,355.143c7.79,7.79,7.79,20.419,0,28.209
	c-7.788,7.786-20.419,7.79-28.207,0c-7.79-7.79-7.79-20.419,0-28.209C194.706,347.353,207.337,347.353,215.125,355.143"/>
<rect x="153.118" y="315.707" transform="matrix(0.7071 -0.7071 0.7071 0.7071 -187.9485 215.8837)" fill-rule="evenodd" clip-rule="evenodd" fill="#302F2F" width="27.033" height="38.242"/>
<path fill-rule="evenodd" clip-rule="evenodd" fill="#565856" d="M169.516,337.709c-19.239,19.241-19.239,50.431,0,69.672
	l69.668-69.672C219.947,318.472,188.755,318.472,169.516,337.709"/>
<rect x="103.847" y="319.417" transform="matrix(0.7072 0.707 -0.707 0.7072 300.811 36.0608)" fill-rule="evenodd" clip-rule="evenodd" fill="#565856" width="6.038" height="123.625"/>
<rect x="111.634" y="327.207" transform="matrix(0.7071 0.7071 -0.7071 0.7071 308.6579 32.8692)" fill-rule="evenodd" clip-rule="evenodd" fill="#565856" width="6.037" height="123.621"/>
<path fill-rule="evenodd" clip-rule="evenodd" fill="#302F2F" d="M78.423,417.462c4.129,4.129,4.129,10.823,0,14.955
	c-4.129,4.129-10.826,4.129-14.955,0c-4.131-4.132-4.131-10.826,0-14.955C67.597,413.33,74.294,413.333,78.423,417.462"/>
<path fill-rule="evenodd" clip-rule="evenodd" fill="#302F2F" d="M169.921,508.079c4.129,4.129,4.129,10.826,0,14.955
	c-4.131,4.129-10.826,4.129-14.957,0c-4.129-4.129-4.129-10.826,0-14.955C159.097,503.946,165.79,503.95,169.921,508.079"/>
<rect x="111.896" y="519.041" fill-rule="evenodd" clip-rule="evenodd" fill="#565856" width="103.019" height="14.18"/>
<polygon fill-rule="evenodd" clip-rule="evenodd" fill="#B25644" points="199.812,533.948 238.707,533.948 225.654,479.863 
	186.744,479.863 "/>
<polygon fill-rule="evenodd" clip-rule="evenodd" fill="#C5634E" points="238.672,533.948 243.986,533.948 230.934,479.863 
	225.654,479.863 "/>
<polygon fill-rule="evenodd" clip-rule="evenodd" fill="#C5634E" points="214.819,503.978 206.293,503.978 193.239,533.918 
	209.89,533.948 "/>
<path fill="#F7F5F9" d="M232.112,536.711l35.022-17.133c0,0,25.053-1.827,35.859,6.771L267.55,547.53
	C267.55,547.53,247.62,533.491,232.112,536.711"/>
<path fill="#DED9DE" d="M268.356,543.849c-14.92-8.503-27.355-9.275-27.481-9.282l0.031-0.573c0.126,0.007,12.69,0.782,27.734,9.354
	L268.356,543.849z"/>
<path fill="#DED9DE" d="M270.084,542.121c-14.92-8.5-27.355-9.275-27.481-9.282l0.031-0.574c0.126,0.007,12.69,0.782,27.738,9.357
	L270.084,542.121z"/>
<path fill="#DED9DE" d="M274.114,540.97c-14.917-8.503-27.355-9.275-27.478-9.282l0.027-0.573c0.13,0.003,12.69,0.782,27.738,9.354
	L274.114,540.97z"/>
<path fill="#DED9DE" d="M275.842,539.242c-14.917-8.504-27.355-9.275-27.478-9.282l0.027-0.577c0.13,0.01,12.69,0.781,27.738,9.357
	L275.842,539.242z"/>
<path fill="#DED9DE" d="M282.235,537.032c-14.917-8.504-27.355-9.275-27.478-9.282l0.034-0.573
	c0.123,0.007,12.688,0.781,27.731,9.357L282.235,537.032z"/>
<path fill="#DED9DE" d="M283.967,535.305c-14.92-8.504-27.358-9.275-27.481-9.283l0.034-0.573
	c0.123,0.007,12.688,0.782,27.731,9.354L283.967,535.305z"/>
<path fill="#DED9DE" d="M288,534.153c-14.92-8.504-27.358-9.275-27.481-9.282l0.031-0.574c0.123,0.008,12.691,0.782,27.731,9.354
	L288,534.153z"/>
<path fill="#DED9DE" d="M289.729,532.426c-14.921-8.504-27.359-9.275-27.481-9.283l0.03-0.573
	c0.123,0.003,12.691,0.782,27.734,9.354L289.729,532.426z"/>
<path fill="#633967" d="M277.625,504.158c0,0-6.833,8.896,21.29,14.866C298.915,519.024,293.84,506.187,277.625,504.158"/>
<path fill="#FCC59D" d="M282.229,523.037c2.674-3.808-0.642-6.68-3.661-7.138c-3.234-0.491-4.891,4.508-5.765,8.88
	c-0.881,4.374-3.784,5.188-3.784,5.188s-2.077,3.62-3.593,2.564c0,0-1.079-4.515-1.257-7.65c-0.174-3.138,0.71-10.897,3.917-13.182
	c3.207-2.281,9.33-6.759,12.742-6.042c3.408,0.718,13.114,1.646,17.984-1.205l4.358,11.608c0,0-5.215-0.598-9.781,5.553
	c-4.569,6.15-12.147,7.554-14.125,11.741c0,0-2.834-4.617,1.66-8.842C281.464,524.011,281.894,523.516,282.229,523.037"/>
<path fill="#ECA578" d="M264.948,530.318c0,0,0.813-8.285,1.68-11.065c0.868-2.779,4.112-5.854,4.112-5.854s-3.996,3.07-4.716,5.349
	c-0.721,2.277-1.502,9.924-1.502,9.924L264.948,530.318z"/>
<path fill="#ECA578" d="M269.019,529.967c0,0,0.273-7.869,0.663-9.594c0.396-1.725,3.429-6.239,3.429-6.239
	s-4.023,4.836-4.286,6.581c-0.263,1.742-0.809,10.672-0.809,10.672L269.019,529.967z"/>
<path fill-rule="evenodd" clip-rule="evenodd" fill="#FFFFFF" d="M401.519,448.034l-20.737-15.989l-10.71,16.676l-2.523-2.787
	c0,0-9.873,32.105-31.368,43.03c-4.672,2.371-58.556,15.194-58.556,15.194s14.952,3.374,21.29,14.869
	c0,0,57.029-10.17,65.625-18.421c3.466-3.326,7.633-9.542,11.372-15.778L401.519,448.034z"/>
<path fill-rule="evenodd" clip-rule="evenodd" fill="#FFFFFF" d="M294.591,507.034c-0.765,1.018-2.206,1.232-3.23,0.471
	l-1.349-1.007c-1.021-0.762-1.233-2.206-0.468-3.225l1.004-1.352c0.762-1.021,2.206-1.233,3.224-0.472l1.352,1.004
	c1.021,0.762,1.229,2.206,0.472,3.228L294.591,507.034z"/>
<polygon fill-rule="evenodd" clip-rule="evenodd" fill="#322F2C" points="265.467,540.912 267.407,539.795 265.959,538.713 "/>
<polygon fill-rule="evenodd" clip-rule="evenodd" fill="#F1EFEE" points="267.257,532.955 265.959,538.713 267.407,539.795 
	272.509,536.868 "/>
<path fill-rule="evenodd" clip-rule="evenodd" fill="#DD4564" d="M290.896,506.754l-20.87,28.018c0.639-0.472,1.534-0.71,2.111-0.28
	c0.689,0.513,0.785,1.517,0.297,2.343l0.055,0.045l21.003-28.192L290.896,506.754z"/>
<path fill-rule="evenodd" clip-rule="evenodd" fill="#F16069" d="M288.26,504.787l-21.003,28.191l0.014,0.014
	c0.649-0.755,1.68-0.97,2.384-0.447c0.622,0.461,0.642,1.492,0.314,2.268c0.017-0.018,0.041-0.03,0.058-0.041l20.87-28.018
	L288.26,504.787z"/>
<path fill-rule="evenodd" clip-rule="evenodd" fill="#F1EFEE" d="M272.202,534.512c-0.604-0.45-1.448-0.352-2.094,0.15
	c0.338-0.782,0.202-1.652-0.42-2.121c-0.71-0.525-1.755-0.311-2.411,0.451l2.571,1.919l0.096,0.072l2.551,1.898
	C272.994,536.049,272.892,535.031,272.202,534.512"/>
<rect x="288.146" y="505.215" transform="matrix(0.8016 0.5978 -0.5978 0.8016 360.3442 -73.8043)" fill-rule="evenodd" clip-rule="evenodd" fill="#CE9F2C" width="6.467" height="1.689"/>
<path fill-rule="evenodd" clip-rule="evenodd" fill="#EEBD1C" d="M294.103,508.093c-0.079,0.105-0.232,0.133-0.341,0.051
	l-5.051-3.76c-0.103-0.085-0.123-0.239-0.048-0.345l0,0c0.082-0.109,0.232-0.13,0.342-0.052l5.047,3.764
	C294.161,507.83,294.185,507.983,294.103,508.093z"/>
<path fill-rule="evenodd" clip-rule="evenodd" fill="#EEBD1C" d="M293.635,508.772c-0.082,0.109-0.232,0.13-0.342,0.051l-5.047-3.76
	c-0.109-0.082-0.13-0.235-0.048-0.345c0.079-0.106,0.232-0.127,0.338-0.048l5.051,3.76
	C293.697,508.509,293.717,508.666,293.635,508.772z"/>
<path fill="#D73E27" d="M835.434,251.825l-2.202,1.035l9.757,28.806c0,0-2.749,3.005,3.603,6.622l34.578,31.266
	c0,0,3.531,2.435,7.025-0.799L835.434,251.825z"/>
<path fill="#EBE6D7" d="M852.041,277.777c0,0,20.19-11.697,34.203-7.646c0,0-1.291,10.519,2.735,15.962l-39.964,0.079
	c0,0-1.021-6.858-4.627-5.164l-8.955-29.183c0,0,7.056-2.951,13.169,2.248L852.041,277.777z"/>
<polygon fill="#DC6D3E" points="926.266,317 888.979,286.093 849.016,286.171 888.194,318.755 "/>
<path fill="#F3F1E9" d="M886.244,270.13c0,0,19.124,9.275,34.407,34.749l5.614,12.12l-38.007-30.282
	C888.259,286.718,884.39,279.443,886.244,270.13"/>
<path fill="#DCD7C3" d="M848.603,254.073c0,0,9.771,7.517,17.25,17.697l-13.812,6.007L848.603,254.073z"/>
<path fill="#FCC59D" d="M920.006,352.462c0,0-4.344-11.055-8.336-14.603c-3.996-3.548-13.255-8.172-15.922-9.695
	c-2.772-1.588-4.863-6.164-5.051-9.614l5.844-0.27c0,0,0.689,1.728,2.216,1.403c2.917-0.621,3.006-1.619,1.735-4.193
	c-1.274-2.579-4.662-7.49-5.164-9.395c-0.506-1.906,1.595-4.699,5.475-0.604c3.818,4.03,6.147,6.448,10.815,9.265
	c4.672,2.817,5.355,5.003,7.114,7.376c0,0,6.096,2.968,8.37,7.848c2.277,4.88,10.099,17.004,10.099,17.004L920.006,352.462z"/>
<path fill="#FCC59D" d="M1191.682,539.238c-1.864-4.515,2.196-6.697,5.393-6.472c3.422,0.243,3.969,5.744,3.863,10.427
	c-0.103,4.679,2.684,6.182,2.684,6.182s1.298,4.187,3.095,3.449c0,0,2.138-4.375,3.042-7.548c0.902-3.173,1.779-11.324-0.983-14.401
	s-8.005-9.067-11.662-9.118c-3.658-0.052-13.814-1.329-18.148-5.369l-7.131,10.891c0,0,5.479,0.588,8.743,7.938
	c3.265,7.349,10.71,10.532,11.769,15.275c0,0,3.968-4.081,0.335-9.439C1192.246,540.413,1191.918,539.809,1191.682,539.238"/>
<path fill="#ECA578" d="M1207.709,550.669c0,0,1.076-8.675,0.826-11.721c-0.249-3.046-2.868-6.943-2.868-6.943
	s3.388,4.064,3.6,6.564c0.219,2.5-0.737,10.512-0.737,10.512L1207.709,550.669z"/>
<path fill="#ECA578" d="M1203.621,549.375c0,0,1.53-8.121,1.523-9.979c-0.004-1.857-2.073-7.182-2.073-7.182
	s3.006,5.877,2.876,7.725s-1.622,11.123-1.622,11.123L1203.621,549.375z"/>
<path fill="#FFFFFB" d="M1187.43,522.17c-0.87-0.888-2.309-0.898-3.192-0.024l-13.066,12.879c-0.881,0.871-0.895,2.305-0.021,3.189
	l26.426,26.813c0.875,0.884,2.313,0.895,3.197,0.023l13.059-12.878c0.889-0.871,0.898-2.309,0.027-3.19L1187.43,522.17z"/>
<rect x="1182.78" y="529.333" transform="matrix(0.7121 -0.7021 0.7021 0.7121 -38.3955 993.8735)" fill="#323333" width="19.755" height="28.842"/>
<rect x="1200.083" y="556.602" transform="matrix(0.7122 -0.702 0.702 0.7122 -44.6721 1005.3701)" fill="#323333" width="7.433" height="1.128"/>
<path fill="#323333" d="M1210.195,550.86c-0.219-0.222-0.573-0.226-0.796-0.007c-0.222,0.219-0.226,0.577-0.007,0.799
	s0.577,0.226,0.8,0.007C1210.414,551.44,1210.417,551.082,1210.195,550.86"/>
<path fill="#323333" d="M1181.03,529.912c-0.557-0.563-1.465-0.57-2.032-0.014c-0.563,0.557-0.566,1.465-0.014,2.028
	c0.557,0.563,1.465,0.57,2.029,0.014C1181.576,531.384,1181.584,530.476,1181.03,529.912"/>
<path fill="#FCC59D" d="M1191.682,539.238c-1.864-4.515,2.196-6.697,5.393-6.472l0.414,0.059c1.495-2.858,4.196-5.044,7.059-6.458
	c-2.463-2.401-5.232-4.58-7.435-4.61c-3.658-0.052-13.817-1.329-18.148-5.369l-7.131,10.891c0,0,5.479,0.588,8.743,7.938
	c3.265,7.349,10.71,10.532,11.771,15.275c0,0,3.965-4.081,0.328-9.439C1192.242,540.413,1191.918,539.809,1191.682,539.238"/>
<path fill-rule="evenodd" clip-rule="evenodd" fill="#FCC59D" d="M1151.432,287.582c0-0.191,0.495-6.26,0.28-12.95
	c-0.175-5.313-1.206-11.051-0.376-14.282c0.922-3.579,4.836-4.115,6.349,1.93c1.205,4.839,1.813,23.387,1.813,23.387
	s2.346-1.585,3.958-1.988s4.409,2.117,4.409,2.117s3.063-0.082,4.449,0.799c1.387,0.885,2.203,2.497,2.203,2.497
	s2.319,0.103,2.821,1.615c0.505,1.509-0.301,8.063-1.209,9.272c-0.909,1.209-2.429,3.125-2.429,3.125
	c-0.191,3.818-6.116,6.523-6.116,6.523l-2.391,10.621c0,0-17.39,2.917-16.785,1.708s1.916-13.207,1.11-14.921
	c-0.807-1.711-3.729-7.056-3.729-9.173c0-2.118,0.304-8.667,1.41-8.972C1148.311,288.589,1151.432,287.582,1151.432,287.582"/>
<path fill-rule="evenodd" clip-rule="evenodd" fill="#F4BA92" d="M1153.672,258.403c1.164-1.441,2.872-0.687,4.013,3.876
	c1.209,4.839,1.813,23.387,1.813,23.387s0.078-0.062,0.226-0.161c-0.007,0.01-0.82,1.578-1.274,2.531
	c-0.454,0.959,2.019,6.15,2.217,6.755c0.201,0.604-0.659,3.788-1.059,4.576c-0.403,0.792,2.186,3.33,4.238,1.038
	c0.795-0.884,1.984-3.644,2.561-5.847c0.916-3.487,1.015-6.622,1.015-6.622s0.249,2.954-0.15,5.174
	c-0.198,1.072-1,3.712-1.789,5.191c-0.977,1.834-0.882,2.114-0.827,2.425c0.1,0.604,1.493,1.451,2.753,1.55
	c1.261,0.103,1.872-1.485,2.735-2.497c0.861-1.011,3.576-8.367,3.679-8.821c0.103-0.451-0.103,0.252-0.301,1.414
	c-0.205,1.158-2.523,7.309-2.773,7.811c-0.13,0.259-1.236,1.625-1.41,2.65c-0.167,0.977,1.206,1.868,1.547,2.138
	c0.707,0.557,2.817-1.868,2.817-1.868c-0.191,3.818-4.593,6.232-4.593,6.232l-2.824,10.474c0,0-1.82,2.077-3.586,2.237l-1.526-1.816
	c-0.28-0.335,1.079-6.615,1.079-6.615c-1.155-1.817-6.172,0.208-10.027-1.899c-0.287-0.157,9.013,1.171,7.183-7.199
	c-0.353-1.612-2.821-3.176-3.228-3.275c-0.403-0.103-2.367-0.959-2.924-1.663c-0.553-0.707-1.209-5.444-1.209-5.444
	s1.964,3.067,2.015,3.518c0.049,0.454,1.766,2.579,2.016,2.681c0.253,0.099,1.816-0.253,2.271-0.506
	c0.451-0.249,1.612-3.729,1.612-3.729s-1.916-7.711-2.824-8.063c-0.905-0.355-5.703-0.455-5.703-0.455s5.201-0.754,5.806-1.612
	c0.604-0.857,0.796-13.053,0.352-17.39C1157.145,264.243,1157.019,258.031,1153.672,258.403"/>
<path fill-rule="evenodd" clip-rule="evenodd" fill="#F4BA92" d="M1153.104,312.123c0.875,0.144,8.982,1.188,12.759-1.718
	c3.777-2.906,6.329-4.911,7.801-6.916c0.034,1.079-1.848,5.987-5.051,7.684c-0.909,4.788-2.098,9.112-1.8,9.723
	c0.525,1.086-14.641-2.175-14.679-3.302C1152.098,316.47,1153.104,312.123,1153.104,312.123"/>
<path fill="#4C263B" d="M1082.497,418.681c0,0,36.204-22.792,54.608-43.345c10.75-12.011,6.693-62.302,6.693-62.302
	s12.674-1.875,27.491,3.972c0,0-1.738,61.858-12.864,76.195c-8.866,11.423-48.509,44.561-48.509,44.561L1082.497,418.681z"/>
<path fill="#4C263B" d="M1114.716,416.287c0,0,24.441,27.792,44.529,40.688c11.734,7.534,54.137-2.841,54.137-2.841
	s3.34,10.57,0.383,24.029c0,0-53.075,7.015-66.852-0.519c-10.973-6.004-44.728-35.313-44.728-35.313L1114.716,416.287z"/>
<path fill="#FCC59D" d="M890.762,422.708c0,0-6.198-5-12.355-8.381c-6.154-3.377-7.934-8.729-8.999-8.155
	c-1.062,0.57-3.046,6.578,2.504,11.27c0,0-4.71,1.547-12.247-1.144c-7.537-2.688-10.19-3.559-10.658-0.939
	c-0.216,1.229-0.038,6.571,5.594,11.704c5.266,4.802,16.266,8.07,28.557,12.086L890.762,422.708z"/>
<path fill="#4C263B" d="M1005.934,402.781c0,0-35.958,23.271-62.377,31.316c-15.437,4.703-59.399-20.18-59.399-20.18
	s-7.042,10.72-7.978,26.638c0,0,56.902,24.493,74.613,20.433c14.108-3.234,60.909-25.265,60.909-25.265L1005.934,402.781z"/>
<path fill="#4C263B" d="M1005.726,424.074c0,0-72.592-94.452-77.428-96.539c-4.839-2.086-14.702,14.33-12.001,23.356
	c0,0,64.576,89.159,75.245,90.931S1005.726,424.074,1005.726,424.074"/>
<path fill-rule="evenodd" clip-rule="evenodd" fill="#4C263B" d="M1086.708,434.985l24.92-11.615l7.138,19.548l3.228-2.278
	c0,0,2.739,35.162,22.246,51.292c4.241,3.504,56.5,29.024,56.5,29.024s-16.096,0.021-25.231,10.338c0,0-56.086-23.523-62.995-33.953
	c-2.79-4.204-5.628-11.529-8.025-18.776L1086.708,434.985z"/>
<path fill="#FCC59D" d="M883.443,485.748c0,0-7.485,1.482-13.753,3.92c-6.267,2.441-11.293,0.461-11.525,1.592
	c-0.235,1.134,2.957,6.283,9.814,5.095c0,0-1.759,4.409-8.37,8.292c-6.611,3.88-10.058,5.249-8.016,6.332
	c2.046,1.082,17.499,4.033,39.243-9.531L883.443,485.748z"/>
<path fill-rule="evenodd" clip-rule="evenodd" fill="#A3B4DC" d="M1052.908,806.953c-127.541,0-231.565-5.389-231.565-11.994
	c0-6.607,104.024-11.993,231.565-11.993c127.545,0,231.569,5.386,231.569,11.993
	C1284.478,801.564,1180.453,806.953,1052.908,806.953"/>
<path fill-rule="evenodd" clip-rule="evenodd" fill="#903F33" d="M1020.517,768.396c0,0-2.739,21.911-1.37,24.992
	c1.37,3.084,2.91,3.596,2.91,3.596s0.342-2.397,1.369-1.711c1.024,0.684,1.024,3.938,1.024,3.938s11.472,8.729,23.797,10.27
	s23.622,0,23.622,0s-33.379-8.217-34.407-43.137L1020.517,768.396z"/>
<path fill-rule="evenodd" clip-rule="evenodd" fill="#903F33" d="M1079.273,765.572c0,0-2.821,6.42-1.797,16.434
	c1.028,10.013,1.028,10.013,1.028,10.013h16.689c0,0-0.512-4.876,1.284-4.364c1.8,0.516,5.007,5.007,5.007,5.007h46.606
	c0,0-47.245-8.6-50.841-28.629L1079.273,765.572z"/>
<polygon fill="#4C263B" points="1059.503,539.938 1009.537,539.938 1009.537,554.494 1015.113,774.236 1042.735,774.236 
	1059.503,561.184 1076.271,774.236 1103.893,774.236 1109.467,554.494 1109.467,539.938 "/>
<polygon fill="#431D32" points="1028.781,774.236 1033.538,571.805 1010.138,573.28 1015.113,774.236 "/>
<path fill="#431D32" d="M1059.503,561.184c0,0,17.899,3.836,23.015,34.523c5.116,30.686,7.674,178.529,7.674,178.529h-13.92
	L1059.503,561.184z"/>
<path fill-rule="evenodd" clip-rule="evenodd" fill="#FFFFFF" d="M1019.625,399.878c-2.094,3.042-24.723,9.091-24.876,9.139
	c0.741-0.226,3.613,37.173,5.105,40.387c11.755,25.299,17.571,51.326,13.876,79.491c-0.454,3.473-1.086,6.867-1.79,10.303
	c43.741,15.406,52.604,7.482,99.981,2.746c-4.702-18.489-8.92-37.897-9.743-57.046c-1.145-26.447,4.877-52.5,13.854-76.795
	l-36.507-12.633l-55.905,2.674L1019.625,399.878z"/>
<path fill-rule="evenodd" clip-rule="evenodd" fill="#FCC59D" d="M1089.45,312.481c3.139-1.581,19.791-11.482,21.895-6.786
	c2.097,4.692-2.995,26.317-4.647,28.831c-1.65,2.517-13.467,6.465-14.156,5.102C1091.854,338.262,1089.45,312.481,1089.45,312.481"
	/>
<path fill-rule="evenodd" clip-rule="evenodd" fill="#DE9075" d="M1096.015,311.368c1.276-0.481,7.253-2.961,8.698-0.738
	c1.444,2.22,0.29,7.919,0.365,9.122s-1.69,10.054-3.196,11.656c-1.51,1.602-7.691,3.996-8.166,2.817
	C1093.238,333.051,1096.015,311.368,1096.015,311.368"/>
<path fill-rule="evenodd" clip-rule="evenodd" fill="#FCC59D" d="M1005.162,313.933c-3.31-1.178-21.058-8.944-22.564-4.026
	c-1.502,4.918,6.223,25.747,8.173,28.038c1.953,2.288,14.166,4.75,14.679,3.31C1005.965,339.816,1005.162,313.933,1005.162,313.933"
	/>
<path fill-rule="evenodd" clip-rule="evenodd" fill="#DE9075" d="M998.513,313.643c-1.328-0.318-7.564-2.042-8.726,0.341
	c-1.158,2.384,0.693,7.896,0.769,9.098s2.916,9.771,4.61,11.171c1.697,1.403,8.128,3.016,8.452,1.79
	C1003.946,334.816,998.513,313.643,998.513,313.643"/>
<path fill-rule="evenodd" clip-rule="evenodd" fill="#92969B" d="M1070.326,399.738c0.153-0.383,5.487-6.048,5.412-6.264
	c-0.074-0.218-2.715-4.665-2.715-4.665l-44.622,0.919l0.517,8.712L1070.326,399.738z"/>
<path fill-rule="evenodd" clip-rule="evenodd" fill="#FCC59D" d="M1029.594,362.209c1.202,7.623,4.218,29.923,1.81,31.931
	c-2.407,2.008-15.85,7.425-15.85,7.425s30.474,21.266,36.515,22.068s36.914-24.077,36.914-24.077s-15.648-6.018-18.056-9.627
	c-2.407-3.613-4.812-33.708-4.812-33.708L1029.594,362.209z"/>
<path fill-rule="evenodd" clip-rule="evenodd" fill="#EBBFB2" d="M999.626,280.465c0.819,19.818,2.79,39.919,2.473,59.74
	c-0.328,20.692,19.896,34.896,36.244,43.625c3.679,1.964,9.071,0.782,13.302,0.837c6.298,0.085,8.72-2.524,13.354-6.048
	c2.753-2.09,5.484-4.211,8.125-6.444c5.249-4.437,10.18-9.327,14.016-15.064c3.832-5.731,6.461-11.728,6.643-18.568
	c0.143-5.311,0.778-10.648,1.164-15.948l0.28-44.438L999.626,280.465z"/>
<path fill-rule="evenodd" clip-rule="evenodd" fill="#ECA578" d="M999.626,280.465c0.819,19.818,2.79,39.919,2.473,59.74
	c-0.328,20.692,19.896,34.896,36.244,43.625c3.679,1.964,9.071,0.782,13.302,0.837c6.298,0.085,8.72-2.524,13.354-6.048
	c2.753-2.09,5.484-4.211,8.125-6.444c5.249-4.437,10.18-9.327,14.016-15.064c3.832-5.731,6.461-11.728,6.643-18.568
	c0.143-5.311,0.778-10.648,1.164-15.948l0.28-44.438L999.626,280.465z"/>
<path fill-rule="evenodd" clip-rule="evenodd" fill="#FCC59D" d="M1000.169,274.478c0.857,20.385,2.862,41.063,2.578,61.452
	c-0.293,21.283,19.962,35.927,36.323,44.933c3.686,2.029,9.074,0.82,13.309,0.888c6.298,0.099,8.716-2.582,13.347-6.198
	c2.746-2.148,5.475-4.324,8.111-6.612c5.242-4.559,10.163-9.579,13.988-15.47c3.824-5.891,6.44-12.056,6.614-19.091
	c0.134-5.457,0.755-10.949,1.135-16.396l0.201-45.711L1000.169,274.478z"/>
<path fill-rule="evenodd" clip-rule="evenodd" fill="#813843" d="M1001.856,267.859c-7.36,1.26-16.997,1.458-17.752,8.739
	c-0.755,7.285,17.427,51.479,17.393,49.065C1001.46,323.252,1001.856,267.859,1001.856,267.859"/>
<path fill-rule="evenodd" clip-rule="evenodd" fill="#693647" d="M1001.521,318.919c0.041-7.759,0.126-20.768,0.198-31.713
	l-0.399-0.851c0,0-3.293-2.872-6.059-5.806c-2.763-2.937-5.085-6.311-5.085-6.311s2.875,9.071,4.538,13.189
	c1.663,4.115,3.515,6.414,2.562,5.669c-0.949-0.745-7.448-6.673-7.448-6.673s3.593,12.592,5.43,15.491
	c1.841,2.903,3.125,4.982,2.91,4.744c-0.219-0.236-4.03-2.562-4.03-2.562S998.257,313.39,1001.521,318.919"/>
<path fill-rule="evenodd" clip-rule="evenodd" fill="#813843" d="M1094.925,325.653l-5.245-38.717c0,0-40.791,13.186-43.082,11.919
	c-2.288-1.264-28.209-4.279-41.658-10.481c-13.452-6.202-15.723-20.132-15.542-30.193c0.178-10.061,9.809-20.108,9.809-20.108
	s1.298,7.96,13.158,11.246c11.86,3.285,41.928-4.61,56.094-3.077s24.821,14.542,24.821,14.542s9.812-0.611,14.49,9.955
	C1112.69,281.861,1099.269,312.102,1094.925,325.653"/>
<path fill-rule="evenodd" clip-rule="evenodd" fill="#693647" d="M1094.925,325.653l-4.385-32.375
	c3.032-3.118,6.034-7.124,7.145-11.533c2.544-10.119,0.546-15.515,0.509-16.112c-0.038-0.601,3.777,7.404,3.326,16.375
	c-0.447,8.975-3.203,14.774-3.818,16.218c-0.611,1.445,4.521-6.513,4.771-7.332c0.252-0.82-0.246,2.527-1.882,10.167
	S1094.925,325.653,1094.925,325.653"/>
<path fill-rule="evenodd" clip-rule="evenodd" fill="#693647" d="M999.206,238.073c0,0,1.298,7.96,13.158,11.246
	c11.86,3.285,41.928-4.61,56.094-3.077c4.928,0.533,9.433,2.456,13.209,4.737c0.485,0.799,0.978,1.684,1.473,2.667
	c4.47,8.869,3.384,17.277,3.24,16.581c-0.146-0.693-9.258-9.876-19.148-13.787c-9.89-3.907-20.941-3.825-20.04-3.883
	c0.898-0.055,10.901,7.264,10.372,6.796c-0.533-0.472-14.036-4.255-19.37-5.181c-5.335-0.925-9.263,0.574-8.456,0.625
	c0.806,0.051,12.663,9.668,12.663,9.668s-15.676-6.366-21.986-9.289C1016.934,253.563,999.854,245.829,999.206,238.073"/>
<path fill-rule="evenodd" clip-rule="evenodd" fill="#693647" d="M1094.925,325.653l-5.245-38.717c0,0-40.791,13.186-43.082,11.919
	c-2.288-1.264-34.486-7.175-41.658-10.481c-7.175-3.306-2.817-1.54-3.619-2.019l-4.478-12.687c0,0,10.252,6.615,11.267,6.591
	c1.018-0.027-14.402-11.106-14.918-20.033c-0.512-8.927,2.773-18.196,3.952-17.332c1.182,0.86,0.396,9.624,6.714,17.475
	c6.314,7.848,15.341,7.489,16.375,8.029c1.039,0.54-9.979-15.061-10.467-16.437c-0.485-1.376,11.297,10.354,23.396,14.228
	c12.104,3.873,18.397,1.673,18.397,1.673s-7.028-9.614-8.278-10.341c-1.25-0.728,18.681,3.063,26.365,10.225
	c7.681,7.162,7.752,14.794,7.752,14.794s3.388-0.41,9.238-6.602c5.847-6.191,5.197-13.387,5.197-13.387s1.113,1.738,2.514,8.083
	C1097.138,283.289,1093.033,311.713,1094.925,325.653"/>
<path fill-rule="evenodd" clip-rule="evenodd" fill="#813843" d="M1066.645,294.07c-7.91,2.336-15.56,4.437-18.674,4.809
	c-0.745,0-1.236-0.017-1.373-0.024c-0.744-0.41-4.003-1.011-8.521-1.844h-0.007l-0.021-0.007l-0.034-0.007l-0.027-0.003
	c-0.967-0.188-9.703-1.868-12.455-2.445l-0.014-0.003c-2.906-0.614-17.766-11.649-19.347-12.854
	c-1.585-1.209,3.415,1.595,10.272,3.583c6.857,1.988,13.479,1.779,13.479,1.779s-2.681-1.042-8.135-4.723
	c-5.454-3.681-19.374-17.492-21.115-19.596c-1.738-2.104,13.537,10.819,24.797,14.142c11.263,3.319,15.316,3.873,15.316,3.873
	s-13.12-10.642-15.563-11.096c-2.438-0.451,9.088,0.646,20.136,3.777c11.048,3.135,15.351,7.69,15.351,7.69l-3.046-13.479
	C1057.666,267.641,1071.139,288.767,1066.645,294.07"/>
<path fill-rule="evenodd" clip-rule="evenodd" fill="#614747" d="M1091.718,312.396L1091.718,312.396
	c0.95,2.466,0.502,8.083-0.023,10.846c-0.526,2.763-1.749,7.083-3.47,9.208c-5.331,6.574-22.871,5.707-27.215,0
	c-3.344-4.392-9.033-17.417-1.981-21.085c6.042-3.142,23.353-3.709,29.486-1.629
	C1088.515,309.735,1090.769,309.927,1091.718,312.396 M1007.802,309.346L1007.802,309.346c6.154-2.018,23.458-1.284,29.473,1.916
	c7.011,3.733,1.198,16.703-2.189,21.064c-4.398,5.662-21.945,6.362-27.212-0.263c-1.704-2.141-2.882-6.475-3.381-9.241
	c-0.498-2.766-0.891-8.388,0.082-10.846C1005.548,309.514,1007.802,309.346,1007.802,309.346z M1053.92,310.74
	c-0.741,0.283-1.947,0.413-5.769,0.307c-3.825,0.068-5.027-0.072-5.769-0.362c-0.416-0.481-1.646-2.001-3.531-2.691
	c-8.865-3.245-33.427-2.036-39.963-0.434c-0.844,0.205-0.933,0.174-1.025,0.745c-0.092,0.57-0.14,3.938,0.127,4.45
	c0.27,0.512,1.561,0.728,2.694,2.415c2.032,3.026,1.837,13.978,6.7,19.186c5.038,5.399,24.228,5.687,29.456-1.441
	c3.452-4.713,5.174-9.958,7.042-15.009c1.116-1.137,2.076-1.223,2.95-1.339c0.54-0.072,1.015-0.085,1.291-0.089
	c0.28,0.003,0.751,0.024,1.294,0.103c0.868,0.123,1.831,0.218,2.938,1.366c1.816,5.068,3.486,10.334,6.895,15.075
	c5.161,7.182,24.351,7.076,29.442,1.728c4.914-5.164,4.822-16.113,6.885-19.122c1.151-1.677,2.441-1.881,2.715-2.39
	c0.273-0.509,0.26-3.876,0.171-4.447c-0.085-0.57-0.178-0.54-1.018-0.755c-6.523-1.663-31.07-3.107-39.964,0.048
	C1055.586,308.755,1054.347,310.262,1053.92,310.74z"/>
<path fill-rule="evenodd" clip-rule="evenodd" fill="#FDEAEC" d="M1073.945,408.173c-1.608-0.403-11.553-1.857-11.553-1.857
	l-9.026,17.208l20.378-5.321L1073.945,408.173z"/>
<path fill-rule="evenodd" clip-rule="evenodd" fill="#FDEAEC" d="M1033.337,413.449c1.885-1.667,11.308-5.464,11.308-5.464
	l7.424,15.648l-20.255-4.627L1033.337,413.449z"/>
<polygon fill-rule="evenodd" clip-rule="evenodd" fill="#903F33" points="1048.356,415.809 1047.164,424.723 1044.709,537.432 
	1062.164,556.488 1078.014,534.219 1060.07,424.34 "/>
<path fill-rule="evenodd" clip-rule="evenodd" fill="#903F33" d="M1062.413,408.371c-1.905,0-18.66-0.301-18.858,1.004
	c-0.201,1.305-1.909,8.627-1.205,9.228c0.699,0.604,3.183,5.887,4.814,6.12c1.633,0.232,11.68-0.058,12.906-0.382
	c1.226-0.321,3.849-6.038,3.849-6.738C1063.919,416.898,1062.413,408.371,1062.413,408.371"/>
<path fill-rule="evenodd" clip-rule="evenodd" fill="#ECA578" d="M1044.989,319.486c0.071,1.202-3.713,21.239-3.713,21.239
	c-5.163,3.333-5.112,1.759-8.95,5.58c0.706-3.644,7.195-7.984,7.195-7.984L1044.989,319.486z"/>
<path fill-rule="evenodd" clip-rule="evenodd" fill="#ECA578" d="M1054.493,349.651c-0.676,0.444-5.379,2.445-8.35,3.132
	c-2.972,0.687-5.317,0.13-6.239-0.116c-0.919-0.242-7.155-3.576-6.355-3.627c0.802-0.048,9.319-0.027,9.319-0.027
	C1039.661,349.016,1055.597,348.928,1054.493,349.651"/>
<path fill="#ECA578" d="M1047.065,363.623c0.997-0.061,1.957-0.167,2.868-0.314c7.404-1.202,16.687-6.646,16.782-6.701
	c0.643,0.137-0.03-0.997-0.317-0.533c-0.092,0.055-9.275,5.44-16.566,6.625c-7.066,1.147-17.318-0.399-24.371-3.682
	c-0.372-0.693-1.065,0.738-0.259,0.56C1031.448,362.485,1040.174,364.05,1047.065,363.623"/>
<path fill-rule="evenodd" clip-rule="evenodd" fill="#C56448" d="M1078.014,534.219L1060.07,424.34
	c0.604-0.157,1.557-1.643,2.359-3.183c0.615-1.178,1.145-2.387,1.37-3.07c0.075-0.229,0.119-0.396,0.119-0.485
	c0-0.704-1.506-9.231-1.506-9.231c-0.205,0-0.584-0.003-1.093-0.007c-0.273-0.003-0.581-0.003-0.926-0.007
	c0.127,0.324,0.253,0.68,0.379,1.048c0.738,2.162,1.432,4.887,1.175,6.359c-0.245,1.404-1.195,3.381-2.151,4.788
	c-0.632,0.936-1.267,1.622-1.704,1.735c-0.014,0.007-0.034,0.01-0.055,0.014c-0.133,0.034-0.335,0.075-0.591,0.13
	c-0.516,0.106-1.253,0.25-2.076,0.406c-0.581,0.109-1.202,0.226-1.824,0.338c-0.532,0.099-1.062,0.194-1.561,0.287
	c-0.126,0.021-0.249,0.044-0.372,0.065c-0.014,0.003-0.027,0.007-0.041,0.01c-1.424,0.256-2.514,0.451-2.514,0.451
	s2.087,0.328,4.229,0.765c2.093,0.43,4.231,0.959,4.518,1.394c0.584,0.874,17.96,104.472,16.851,107.484
	c-0.205,0.557-0.766,1.69-1.537,3.173c-0.45,0.867-0.98,1.848-1.551,2.902c-0.829,1.537-1.758,3.221-2.701,4.911
	c-0.881,1.588-1.775,3.183-2.612,4.665c-1.725,3.063-3.196,5.646-3.801,6.7c-0.188,0.328-0.29,0.506-0.29,0.506l0.345-0.488
	l3.804-5.342l2.743-3.852l5.676-7.978l2.582-3.627L1078.014,534.219z"/>
<path fill="#4C263B" d="M1024.584,395.069l21.521,123.979l-4.412,43.013c-0.355,3.433-3.187,6.079-6.639,6.195l-31.655,1.063
	c-3.356,0.108-5.918-2.979-5.184-6.257l9.685-43.283l-13.113-110.742C1005.961,403.706,1015.896,397.46,1024.584,395.069"/>
<path fill="#431D32" d="M1026.161,480.618l1.377-26.454c-5.406,6.191-14.524,7.5-21.454,3.081l-0.751-0.482l8.981,63.351
	l-14.456,35.605l-1.643,7.339c-0.734,3.282,1.827,6.373,5.184,6.261l31.655-1.063c3.452-0.116,6.283-2.763,6.639-6.195l4.412-43.013
	L1026.161,480.618z"/>
<path fill="#4C263B" d="M1074.83,392.996l-5.402,127.019l7.284,42.621c0.581,3.401,3.586,5.854,7.035,5.737l31.655-1.063
	c3.36-0.112,5.706-3.367,4.757-6.591l-12.564-42.532l1.756-43.078l6.683-67.008l-29.12-11.751
	C1082.337,394.427,1079.779,393.375,1074.83,392.996"/>
<path fill="#431D32" d="M1086.756,480.334l-3.146-26.3c5.81,5.813,14.992,6.506,21.607,1.632l0.721-0.529l-4.72,63.812l16.81,34.558
	l2.131,7.213c0.949,3.224-1.396,6.479-4.757,6.591l-31.655,1.063c-3.449,0.116-6.454-2.336-7.035-5.737l-9.299-45.883
	L1086.756,480.334z"/>
<path fill-rule="evenodd" clip-rule="evenodd" fill="#C3C0C5" d="M1028.401,389.728l16.243,18.257l-13.743,14.862
	c-0.762,1.065-10.382-26.057-10.382-26.057L1028.401,389.728z"/>
<path fill-rule="evenodd" clip-rule="evenodd" fill="#C3C0C5" d="M1073.023,388.809l-12.625,19.548l12.406,13.121
	c0.766,1.069,8.545-28.554,8.545-28.554L1073.023,388.809z"/>
<path fill-rule="evenodd" clip-rule="evenodd" fill="#F4BA92" d="M1014.004,536.268c1.878,0.758,21.208,12.321,21.918,13.394
	c0.71,1.069,6.458,9.026,4.72,10.481c-1.742,1.458-16.83,15.04-18.069,13.117c-1.243-1.923-15.669-21.112-15.669-21.112
	L1014.004,536.268z"/>
<path fill-rule="evenodd" clip-rule="evenodd" fill="#ECA578" d="M1040.642,560.143c0.314-0.263,0.379-0.748,0.276-1.362
	l-4.449-5.171c0,0,2.346,5.396,1.885,7.243c-0.458,1.845-14.344,7.978-15.546,7.726c-0.878-0.188-9.511-12.735-14.395-19.808
	l-1.51,3.377c0,0,14.426,19.189,15.669,21.112C1023.812,575.183,1038.899,561.601,1040.642,560.143"/>
<path fill-rule="evenodd" clip-rule="evenodd" fill="#4C263B" d="M1020.693,424.709l-25.924-15.573
	c-5.085,10.406-10.17,20.808-15.259,31.214c-4.129,8.449-8.261,16.898-12.39,25.344c-3.706,7.585-11.271,17.072-11.892,25.35
	c-0.69,9.133,6.052,14.928,11.194,21.513c5.358,6.857,10.717,13.711,16.072,20.565c6.994,8.951,13.984,17.898,20.976,26.847
	l25.187-20.033l-41.781-52.146L1020.693,424.709z"/>
<path fill="#431D32" d="M1018.143,397.228l0.561,32l14.75,17.749l-9.316-53.231C1024.137,393.744,1019.021,395.349,1018.143,397.228
	"/>
<polygon fill="#1C1C1C" points="1021.913,433.09 1023.337,483.934 1046.402,520.575 1033.453,446.976 "/>
<path fill="#431D32" d="M1081.35,392.924l3.08,31.856l-12.636,19.313l3.207-53.949
	C1075.001,390.145,1080.264,391.159,1081.35,392.924"/>
<polygon fill="#1C1C1C" points="1081.681,428.985 1086.046,479.662 1067.293,518.687 1071.794,444.093 "/>
<path fill-rule="evenodd" clip-rule="evenodd" fill="#61513E" d="M1068.97,322.402c0,2.585,0.909,4.679,2.028,4.679
	c1.117,0,2.025-2.094,2.025-4.679c0-2.585-0.908-4.679-2.025-4.679C1069.879,317.724,1068.97,319.817,1068.97,322.402"/>
<path fill-rule="evenodd" clip-rule="evenodd" fill="#61513E" d="M1023.214,322.402c0,2.585,0.909,4.679,2.025,4.679
	c1.12,0,2.028-2.094,2.028-4.679c0-2.585-0.904-4.679-2.028-4.679C1024.123,317.724,1023.214,319.817,1023.214,322.402"/>
<path fill="#FCC59D" d="M1196.695,390.425c0,0,3.183-6.106,6.885-10.915c3.706-4.805,3.266-9.658,4.307-9.572
	c1.038,0.089,4.686,4.156,1.916,9.791c0,0,4.266-0.403,9.303-5.14c5.041-4.74,6.841-6.349,8.114-4.433
	c0.598,0.898,2.306,5.188-0.379,11.202c-2.511,5.625-10.089,12.018-18.432,19.453L1196.695,390.425z"/>
<path fill="#4C263B" d="M1098.6,414.484c0,0,36.524,5.99,60.232,3.22c13.852-1.615,40.053-36.528,40.053-36.528
	s9.285,6.052,15.535,18.336c0,0-36.586,39.083-52.016,41.992c-12.291,2.319-56.975,1.066-56.975,1.066L1098.6,414.484z"/>
<path fill-rule="evenodd" clip-rule="evenodd" fill="#FFFFFF" d="M1035.379,210.294h19.767c1.305,0,2.37,1.066,2.37,2.37
	c0,1.305-1.065,2.37-2.37,2.37h-19.767c-1.305,0-2.37-1.065-2.37-2.37C1033.009,211.36,1034.074,210.294,1035.379,210.294"/>
<path fill-rule="evenodd" clip-rule="evenodd" fill="#FFFFFF" d="M1035.379,216.202h19.767c1.305,0,2.37,1.065,2.37,2.37
	s-1.065,2.37-2.37,2.37h-19.767c-1.305,0-2.37-1.065-2.37-2.37S1034.074,216.202,1035.379,216.202"/>
<path fill-rule="evenodd" clip-rule="evenodd" fill="#FFFFFF" d="M1035.379,222.11h19.767c1.305,0,2.37,1.062,2.37,2.37
	c0,1.305-1.065,2.367-2.37,2.367h-19.767c-1.305,0-2.37-1.062-2.37-2.367C1033.009,223.172,1034.074,222.11,1035.379,222.11"/>
<polygon fill-rule="evenodd" clip-rule="evenodd" fill="#FFFFFF" points="1049.654,230.354 1053.523,228.001 1045.153,228.001 
	1036.782,228.001 1040.655,230.354 "/>
<path fill-rule="evenodd" clip-rule="evenodd" fill="#FFC955" d="M1036.271,207.087h18.127c1.937,0,3.337-1.762,3.337-3.627
	c0-5.064,1.253-8.801,4.62-12.571c2.06-2.309,4.317-4.17,5.967-6.854c2.336-3.808,2.906-8.367,2.906-12.752
	c0-14.446-11.198-26.928-25.897-26.928c-14.695,0-25.893,12.482-25.893,26.928c0,4.385,0.573,8.944,2.909,12.752
	c1.646,2.685,3.907,4.545,5.966,6.854c3.364,3.77,4.617,7.506,4.617,12.571C1032.93,205.325,1034.33,207.087,1036.271,207.087"/>
<path fill-rule="evenodd" clip-rule="evenodd" fill="#FFFFFF" d="M1045.638,148.952c11.844,8.09,12.472,21.365,12.472,21.365
	s10.034-0.167,9.434-0.198c-0.605-0.031,0.867-7.134-5.226-14.726C1056.218,147.801,1045.638,148.952,1045.638,148.952"/>
<path fill-rule="evenodd" clip-rule="evenodd" fill="#FFFFFF" d="M1045.33,110.306c0.479,0,0.864,0.389,0.864,0.864v24.958
	c0,0.478-0.386,0.864-0.864,0.864c-0.471,0-0.86-0.386-0.86-0.864V111.17C1044.47,110.695,1044.859,110.306,1045.33,110.306"/>
<path fill-rule="evenodd" clip-rule="evenodd" fill="#FFFFFF" d="M1075.64,118.427c0.41,0.239,0.554,0.769,0.317,1.178
	l-12.479,21.614c-0.239,0.414-0.769,0.557-1.182,0.318c-0.41-0.236-0.554-0.769-0.314-1.178l12.479-21.618
	C1074.7,118.332,1075.229,118.192,1075.64,118.427"/>
<path fill-rule="evenodd" clip-rule="evenodd" fill="#FFFFFF" d="M1097.828,140.612c0.235,0.414,0.096,0.943-0.318,1.182
	l-21.614,12.479c-0.413,0.236-0.942,0.096-1.178-0.317c-0.239-0.41-0.096-0.939,0.313-1.178l21.615-12.479
	C1097.06,140.059,1097.589,140.202,1097.828,140.612"/>
<path fill-rule="evenodd" clip-rule="evenodd" fill="#FFFFFF" d="M1105.945,170.921c0,0.475-0.386,0.864-0.86,0.864h-24.958
	c-0.478,0-0.863-0.389-0.863-0.864c0-0.475,0.386-0.864,0.863-0.864h24.958C1105.56,170.057,1105.945,170.446,1105.945,170.921"/>
<path fill-rule="evenodd" clip-rule="evenodd" fill="#FFFFFF" d="M1097.828,201.227c-0.239,0.413-0.769,0.553-1.182,0.317
	l-21.615-12.479c-0.409-0.239-0.553-0.769-0.313-1.182c0.235-0.41,0.765-0.553,1.178-0.314l21.614,12.479
	C1097.924,200.288,1098.063,200.817,1097.828,201.227"/>
<path fill-rule="evenodd" clip-rule="evenodd" fill="#FFFFFF" d="M1015.028,118.427c0.409-0.235,0.938-0.096,1.178,0.314
	l12.476,21.618c0.239,0.413,0.096,0.942-0.314,1.178c-0.409,0.239-0.938,0.096-1.178-0.314l-12.479-21.618
	C1014.472,119.196,1014.615,118.667,1015.028,118.427"/>
<path fill-rule="evenodd" clip-rule="evenodd" fill="#FFFFFF" d="M992.84,140.615c0.239-0.413,0.766-0.553,1.179-0.317
	l21.614,12.479c0.413,0.239,0.553,0.768,0.317,1.178c-0.239,0.413-0.769,0.553-1.179,0.317l-21.617-12.479
	C992.744,141.555,992.601,141.025,992.84,140.615"/>
<path fill-rule="evenodd" clip-rule="evenodd" fill="#FFFFFF" d="M984.719,170.921c0-0.475,0.386-0.861,0.864-0.861h24.958
	c0.475,0,0.863,0.386,0.863,0.861c0,0.475-0.389,0.864-0.863,0.864h-24.958C985.104,171.785,984.719,171.396,984.719,170.921"/>
<path fill-rule="evenodd" clip-rule="evenodd" fill="#FFFFFF" d="M992.84,201.227c-0.239-0.41-0.096-0.939,0.314-1.178
	l21.617-12.479c0.41-0.239,0.939-0.096,1.179,0.314c0.235,0.413,0.096,0.942-0.317,1.182l-21.614,12.479
	C993.605,201.78,993.079,201.64,992.84,201.227"/>
<path fill-rule="evenodd" clip-rule="evenodd" fill="#B25644" d="M1256.348,360.884c0,14.808-12.001,26.809-26.813,26.809
	c-14.808,0-26.809-12-26.809-26.809s12.001-26.812,26.809-26.812C1244.347,334.072,1256.348,346.076,1256.348,360.884"/>
<path fill-rule="evenodd" clip-rule="evenodd" fill="#F1F2F0" d="M1248.09,346.571c0.116,1.024,0.178,2.066,0.178,3.118
	c0,15.372-12.462,27.833-27.834,27.833c-3.076,0-6.037-0.502-8.804-1.424c4.303,5.078,10.727,8.302,17.905,8.302
	c12.961,0,23.465-10.505,23.465-23.465C1253,355.525,1251.167,350.54,1248.09,346.571"/>
<path fill-rule="evenodd" clip-rule="evenodd" fill="#FFFFFF" d="M1248.268,349.689c0-1.052-0.062-2.093-0.178-3.118
	c-4.293-5.536-11.004-9.102-18.555-9.102c-12.957,0-23.462,10.508-23.462,23.465c0,5.782,2.09,11.072,5.557,15.163
	c2.767,0.919,5.728,1.424,8.804,1.424C1235.806,377.522,1248.268,365.061,1248.268,349.689"/>
<path fill-rule="evenodd" clip-rule="evenodd" fill="#626A67" d="M1231.417,340.212c0,1.039-0.84,1.882-1.882,1.882
	c-1.035,0-1.878-0.843-1.878-1.882c0-1.038,0.843-1.878,1.878-1.878C1230.577,338.334,1231.417,339.174,1231.417,340.212"/>
<path fill-rule="evenodd" clip-rule="evenodd" fill="#626A67" d="M1231.417,381.662c0,1.035-0.84,1.878-1.882,1.878
	c-1.035,0-1.878-0.843-1.878-1.878c0-1.042,0.843-1.885,1.878-1.885C1230.577,379.776,1231.417,380.62,1231.417,381.662"/>
<path fill-rule="evenodd" clip-rule="evenodd" fill="#626A67" d="M1250.262,362.817c-1.042,0-1.882-0.844-1.882-1.882
	s0.84-1.878,1.882-1.878c1.035,0,1.878,0.844,1.878,1.878C1252.14,361.973,1251.297,362.817,1250.262,362.817"/>
<path fill-rule="evenodd" clip-rule="evenodd" fill="#626A67" d="M1208.815,362.817c-1.041,0-1.882-0.844-1.882-1.882
	s0.841-1.878,1.882-1.878c1.035,0,1.879,0.844,1.879,1.878C1210.694,361.973,1209.851,362.817,1208.815,362.817"/>
<path fill-rule="evenodd" clip-rule="evenodd" fill="#B25644" d="M1220.875,343.539c0,0.646-0.523,1.168-1.168,1.168
	c-0.643,0-1.165-0.522-1.165-1.168s0.522-1.165,1.165-1.165C1220.352,342.374,1220.875,342.893,1220.875,343.539"/>
<path fill-rule="evenodd" clip-rule="evenodd" fill="#B25644" d="M1213.354,351.834c0,0.646-0.522,1.171-1.168,1.171
	c-0.642-0.003-1.165-0.526-1.165-1.168c0-0.646,0.52-1.168,1.165-1.168S1213.354,351.192,1213.354,351.834"/>
<path fill-rule="evenodd" clip-rule="evenodd" fill="#B25644" d="M1247.84,369.34c0,0.642-0.519,1.168-1.164,1.168
	s-1.168-0.526-1.168-1.168c0-0.646,0.522-1.168,1.168-1.168S1247.84,368.698,1247.84,369.34"/>
<path fill-rule="evenodd" clip-rule="evenodd" fill="#B25644" d="M1240.323,377.635c0,0.646-0.522,1.168-1.168,1.168
	s-1.164-0.522-1.164-1.168c0-0.642,0.519-1.164,1.164-1.164S1240.323,376.993,1240.323,377.635"/>
<path fill-rule="evenodd" clip-rule="evenodd" fill="#B25644" d="M1212.705,368.301c0.646,0,1.168,0.523,1.168,1.168
	c0,0.642-0.522,1.168-1.168,1.168c-0.645,0-1.164-0.523-1.164-1.168C1211.541,368.824,1212.061,368.301,1212.705,368.301"/>
<path fill-rule="evenodd" clip-rule="evenodd" fill="#B25644" d="M1221.004,375.822c0.646,0,1.168,0.522,1.168,1.168
	c0,0.645-0.522,1.165-1.168,1.165c-0.642,0-1.164-0.52-1.164-1.165C1219.84,376.344,1220.362,375.822,1221.004,375.822"/>
<path fill-rule="evenodd" clip-rule="evenodd" fill="#B25644" d="M1238.507,341.336c0.646,0,1.168,0.522,1.168,1.165
	c0,0.645-0.522,1.168-1.168,1.168c-0.642,0-1.165-0.523-1.165-1.168C1237.342,341.858,1237.865,341.336,1238.507,341.336"/>
<path fill-rule="evenodd" clip-rule="evenodd" fill="#B25644" d="M1246.802,348.853c0.646,0,1.168,0.526,1.168,1.168
	c0.004,0.646-0.522,1.168-1.168,1.168c-0.642,0-1.164-0.522-1.164-1.168C1245.638,349.378,1246.16,348.853,1246.802,348.853"/>
<path fill-rule="evenodd" clip-rule="evenodd" fill="#626A67" d="M1238.811,374.821l-7.899-13.093
	c0.082-0.195,0.127-0.41,0.127-0.635v-0.109c0-0.916-0.741-1.66-1.656-1.66s-1.656,0.744-1.656,1.66v0.109
	c0,0.915,0.741,1.66,1.656,1.66c0.105,0,0.208-0.014,0.311-0.031l7.783,12.896c0.219,0.369,0.696,0.492,1.065,0.27
	C1238.91,375.665,1239.033,375.19,1238.811,374.821"/>
<path fill-rule="evenodd" clip-rule="evenodd" fill="#B25644" d="M1230.461,358.613c0-0.01,0.003-0.024,0.003-0.041v-9.931
	c0-0.505-0.406-0.908-0.904-0.908c-0.506,0-0.912,0.406-0.912,0.908v9.931c0,0.017,0.003,0.031,0.003,0.041
	c-0.945,0.365-1.622,1.281-1.622,2.36c0,1.397,1.134,2.527,2.531,2.527c1.393,0,2.526-1.13,2.526-2.527
	C1232.086,359.894,1231.41,358.978,1230.461,358.613 M1229.56,362.271c-0.718,0-1.302-0.584-1.302-1.298
	c0.004-0.714,0.584-1.298,1.302-1.298c0.714,0,1.294,0.584,1.294,1.298S1230.273,362.271,1229.56,362.271z"/>
<path fill="#FCC59D" d="M1209.803,379.729c0,0,4.446-7.636-2.172-9.9c0,0-1.383,6.011-3.719,9.241L1209.803,379.729z"/>
<rect x="820.304" y="391.432" transform="matrix(0.7319 -0.6814 0.6814 0.7319 -47.6613 686.5861)" fill-rule="evenodd" clip-rule="evenodd" fill="#FFFFFF" width="56.769" height="24.86"/>
<rect x="817.627" y="396.332" transform="matrix(0.7319 -0.6814 0.6814 0.7319 -44.8495 681.6602)" fill-rule="evenodd" clip-rule="evenodd" fill="#EFEEEE" width="52.465" height="2.989"/>
<rect x="821.816" y="400.835" transform="matrix(0.7319 -0.6814 0.6814 0.7319 -46.7798 685.765)" fill-rule="evenodd" clip-rule="evenodd" fill="#EFEEEE" width="52.467" height="2.986"/>
<rect x="826.007" y="405.335" transform="matrix(0.7319 -0.6814 0.6814 0.7319 -48.7368 689.7843)" fill-rule="evenodd" clip-rule="evenodd" fill="#EFEEEE" width="52.465" height="2.989"/>
<path fill-rule="evenodd" clip-rule="evenodd" fill="#FFC955" d="M819.622,414.399c-0.052,0.737,0.242,1.557,0.854,2.216
	l22.591,24.265c0.41,0.444,0.905,0.744,1.41,0.898l5.195-29.899L819.622,414.399z"/>
<path fill-rule="evenodd" clip-rule="evenodd" fill="#FFC955" d="M886.012,400.899l-22.588-24.265
	c-0.539-0.581-1.226-0.922-1.885-0.994l-4.897,29.875l30.18-3.074C886.715,401.906,886.442,401.36,886.012,400.899"/>
<path fill-rule="evenodd" clip-rule="evenodd" fill="#DC6D3E" d="M846.602,441.378l39.656-36.914
	c0.536-0.499,0.717-1.253,0.563-2.022l-30.18,3.074l-0.96,5.86l-6.01,0.502l-5.195,29.899
	C845.252,442.014,846.052,441.891,846.602,441.378"/>
<path fill-rule="evenodd" clip-rule="evenodd" fill="#DC6D3E" d="M861.645,375.927c-0.614-0.075-1.212,0.079-1.652,0.485
	l-39.937,36.61c-0.383,0.345-0.588,0.823-0.622,1.342l35.535-3.343L861.645,375.927z"/>
<path fill="#FCC59D" d="M871.911,417.441c0,0-8.255-6.038-2.282-11.509c0,0,4.249,5.734,8.224,8.08L871.911,417.441z"/>
<path fill="#FCC59D" d="M1212.094,458.549c0,0,6.831,0.864,12.623,2.667c5.795,1.803,10.193-0.297,10.474,0.707
	c0.28,1.007-2.268,5.84-8.517,5.205c0,0,1.861,3.855,8.056,6.933c6.191,3.081,9.382,4.098,7.609,5.198
	c-1.772,1.103-15.498,4.727-35.914-6.117L1212.094,458.549z"/>
<rect x="1232.638" y="444.261" transform="matrix(-0.5514 -0.8342 0.8342 -0.5514 1580.1584 1749.1222)" fill-rule="evenodd" clip-rule="evenodd" fill="#FFC955" width="55.389" height="10.946"/>
<rect x="1227.709" y="433.494" transform="matrix(0.8342 -0.5514 0.5514 0.8342 -48.2438 761.9072)" fill-rule="evenodd" clip-rule="evenodd" fill="#FFFFFB" width="30.594" height="55.387"/>
<rect x="1260.832" y="472.371" transform="matrix(-0.5515 -0.8342 0.8342 -0.5515 1563.9834 1790.7789)" fill-rule="evenodd" clip-rule="evenodd" fill="#E2E3E6" width="5.146" height="5.149"/>
<rect x="1236.114" y="434.98" transform="matrix(-0.5515 -0.8342 0.8342 -0.5515 1556.7595 1712.1628)" fill-rule="evenodd" clip-rule="evenodd" fill="#E2E3E6" width="5.146" height="5.146"/>
<rect x="1255.888" y="464.896" transform="matrix(-0.5515 -0.8342 0.8342 -0.5515 1562.4828 1775.0698)" fill-rule="evenodd" clip-rule="evenodd" fill="#E2E3E6" width="5.146" height="5.143"/>
<rect x="1250.943" y="457.418" transform="matrix(-0.5515 -0.8342 0.8342 -0.5515 1561.0487 1759.3441)" fill-rule="evenodd" clip-rule="evenodd" fill="#E2E3E6" width="5.146" height="5.146"/>
<rect x="1246.001" y="449.939" transform="matrix(-0.5516 -0.8341 0.8341 -0.5516 1559.8245 1743.5682)" fill-rule="evenodd" clip-rule="evenodd" fill="#E2E3E6" width="5.147" height="5.146"/>
<rect x="1241.057" y="442.459" transform="matrix(-0.5515 -0.8342 0.8342 -0.5515 1558.2554 1727.873)" fill-rule="evenodd" clip-rule="evenodd" fill="#FFC955" width="5.146" height="5.146"/>
<rect x="1253.019" y="477.539" transform="matrix(-0.551 -0.8345 0.8345 -0.551 1546.7186 1792.4619)" fill-rule="evenodd" clip-rule="evenodd" fill="#E2E3E6" width="5.144" height="5.146"/>
<rect x="1228.297" y="440.148" transform="matrix(-0.5516 -0.8341 0.8341 -0.5516 1540.5885 1713.5931)" fill-rule="evenodd" clip-rule="evenodd" fill="#E2E3E6" width="5.146" height="5.145"/>
<rect x="1248.076" y="470.062" transform="matrix(-0.5518 -0.834 0.834 -0.5518 1546.5272 1776.4595)" fill-rule="evenodd" clip-rule="evenodd" fill="#E2E3E6" width="5.143" height="5.146"/>
<rect x="1243.129" y="462.584" transform="matrix(-0.5515 -0.8342 0.8342 -0.5515 1544.616 1760.8391)" fill-rule="evenodd" clip-rule="evenodd" fill="#E2E3E6" width="5.146" height="5.144"/>
<rect x="1238.19" y="455.103" transform="matrix(-0.5514 -0.8343 0.8343 -0.5514 1543.0487 1745.1465)" fill-rule="evenodd" clip-rule="evenodd" fill="#FFC955" width="5.142" height="5.149"/>
<rect x="1233.244" y="447.627" transform="matrix(-0.5518 -0.834 0.834 -0.5518 1542.2227 1729.2749)" fill-rule="evenodd" clip-rule="evenodd" fill="#FFC955" width="5.143" height="5.145"/>
<rect x="1245.388" y="482.582" transform="matrix(-0.5509 -0.8346 0.8346 -0.5509 1530.6052 1793.9321)" fill-rule="evenodd" clip-rule="evenodd" fill="#E2E3E6" width="5.144" height="5.149"/>
<rect x="1220.668" y="445.192" transform="matrix(-0.5515 -0.8342 0.8342 -0.5515 1524.2769 1715.1201)" fill-rule="evenodd" clip-rule="evenodd" fill="#E2E3E6" width="5.146" height="5.146"/>
<rect x="1240.442" y="475.104" transform="matrix(-0.5515 -0.8342 0.8342 -0.5515 1530.001 1778.0237)" fill-rule="evenodd" clip-rule="evenodd" fill="#E2E3E6" width="5.146" height="5.146"/>
<rect x="1235.498" y="467.627" transform="matrix(-0.5515 -0.8342 0.8342 -0.5515 1528.6355 1762.2866)" fill-rule="evenodd" clip-rule="evenodd" fill="#E2E3E6" width="5.146" height="5.149"/>
<rect x="1230.556" y="460.151" transform="matrix(-0.5518 -0.834 0.834 -0.5518 1527.608 1746.4664)" fill-rule="evenodd" clip-rule="evenodd" fill="#E2E3E6" width="5.143" height="5.144"/>
<rect x="1225.613" y="452.671" transform="matrix(-0.5509 -0.8346 0.8346 -0.5509 1524.899 1731.0354)" fill-rule="evenodd" clip-rule="evenodd" fill="#E2E3E6" width="5.144" height="5.146"/>
<path fill-rule="evenodd" clip-rule="evenodd" fill="#545552" d="M1268.707,461.971c-1.339,0.885-1.708,2.691-0.82,4.034
	c0.885,1.342,2.691,1.708,4.033,0.823c1.343-0.888,1.711-2.694,0.823-4.037C1271.855,461.452,1270.049,461.083,1268.707,461.971"/>
<path fill-rule="evenodd" clip-rule="evenodd" fill="#FFFFFB" d="M1269.321,462.313c-0.703,0.464-0.895,1.41-0.431,2.114
	l0.841,1.271c0.464,0.7,1.407,0.895,2.11,0.43l6.567-4.34c0.703-0.464,0.895-1.411,0.431-2.111l-0.841-1.273
	c-0.464-0.7-1.41-0.892-2.11-0.431L1269.321,462.313z"/>
<path fill-rule="evenodd" clip-rule="evenodd" fill="#545552" d="M1249.145,432.376c-1.342,0.885-1.711,2.694-0.822,4.033
	c0.888,1.342,2.69,1.711,4.033,0.823c1.346-0.885,1.714-2.691,0.826-4.033C1252.294,431.857,1250.487,431.488,1249.145,432.376"/>
<path fill-rule="evenodd" clip-rule="evenodd" fill="#FFFFFB" d="M1249.756,432.721c-0.7,0.465-0.895,1.411-0.43,2.111l0.84,1.274
	c0.465,0.7,1.41,0.891,2.11,0.43l6.571-4.344c0.699-0.461,0.891-1.407,0.43-2.11l-0.84-1.271c-0.465-0.704-1.41-0.895-2.114-0.43
	L1249.756,432.721z"/>
<path fill="#FCC59D" d="M1225.431,467.442c0,0,9.869,1.69,9.647-6.236c0,0-6.93,0.918-11.287-0.284L1225.431,467.442z"/>
<path fill-rule="evenodd" clip-rule="evenodd" fill="#7B4736" d="M851.03,502.024c0,0-3.675,1.499-3.265,5.307
	c0.406,3.808-0.273,6.529,0.816,7.072c1.086,0.544,3.398,0.816,3.398-0.406c0-1.226-1.359-6.939,1.632-8.435
	C856.607,504.066,851.03,502.024,851.03,502.024"/>
<path fill-rule="evenodd" clip-rule="evenodd" fill="#DC6D3E" d="M831.53,511.682c0,0,56.66,3.805,59.662,5.607
	c3.005,1.8-7.008,11.212-5.806,28.032c1.202,16.815,3.603,32.43,1.602,34.435c-2.001,2.001-59.263-9.211-59.263-9.211
	S814.513,523.696,831.53,511.682"/>
<path fill-rule="evenodd" clip-rule="evenodd" fill="#7B4736" d="M866.129,505.698c0,0-11.652-0.225-11.83-0.632
	c-0.365-0.833-5.891-2.175-2.824-3.224c5.331-1.81,21.87-3.234,22.134,6.848c0.136,5.17,0.272,6.936,0.272,6.936
	s-3.128,1.227-4.624-0.27C867.762,513.86,871.159,506.515,866.129,505.698"/>
<path fill-rule="evenodd" clip-rule="evenodd" fill="#EEBC81" d="M891.192,517.289c0,0,3.883,0.738,5.553,9.085
	s3.504,40.899,4.672,46.91c1.172,6.011-14.429,6.472-14.429,6.472s1.076-5.639,0.075-17.489
	C886.063,550.413,878.796,521.726,891.192,517.289"/>
<path fill-rule="evenodd" clip-rule="evenodd" fill="#603327" d="M823.037,543.148c0,0,9.801,8.477,25.114,10.823l0.103,2.448
	C848.254,556.42,831.104,553.667,823.037,543.148"/>
<path fill-rule="evenodd" clip-rule="evenodd" fill="#603327" d="M884.021,543.114c0,0-13.578,8.78-28.892,11.13l-0.103,2.449
	C855.026,556.693,875.958,553.63,884.021,543.114"/>
<path fill-rule="evenodd" clip-rule="evenodd" fill="#EEBC81" d="M847.476,548.49c0,0,0.188,8.483,1.038,10.085
	c0.847,1.602,7.165,2.168,7.165-0.563c0-2.735,0.283-9.805-0.567-9.993C854.265,547.827,847.854,545.942,847.476,548.49"/>
<path fill-rule="evenodd" clip-rule="evenodd" fill="#4C263B" d="M1020.093,442.922c-16.372,16.683-43.208,46.159-63.108,58.918
	c-14.65,9.395-73.875,5.724-73.875,5.724c-4.311-14.658-1.432-26.601-1.432-26.601s47.686,8.207,60.079-1.024
	c28.424-21.177,37.781-39.493,53.46-69.279L1020.093,442.922z"/>
</svg>
